<?xml version="1.0" encoding="UTF-8"?>
<svg width="96px" height="96px" viewBox="0 0 96 96" version="1.1" xmlns="http://www.w3.org/2000/svg" xmlns:xlink="http://www.w3.org/1999/xlink">
    <!-- Generator: Sketch 63 (92445) - https://sketch.com -->
    <title>长尺寸-空备份@3x</title>
    <desc>Created with Sketch.</desc>
    <defs>
        <linearGradient x1="50%" y1="3.85205925%" x2="50%" y2="121.56033%" id="linearGradient-1">
            <stop stop-color="#779EEA" stop-opacity="0.4" offset="0%"></stop>
            <stop stop-color="#FFFFFF" stop-opacity="0" offset="100%"></stop>
        </linearGradient>
    </defs>
    <g id="长尺寸-空备份" stroke="none" stroke-width="1" fill="none" fill-rule="evenodd">
        <g id="编组">
            <rect id="矩形" x="0" y="0" width="96" height="96"></rect>
            <path d="M48,67 C70.9146944,67 90.2125698,77.664881 95.9996444,90.9991806 L0.000355586414,90.9991806 C5.7874302,77.664881 25.0853056,67 48,67 Z" id="Combined-Shape" fill="url(#linearGradient-1)"></path>
            <g id="Group" transform="translate(25.000000, 40.000000)">
                <path d="M0.462477391,13.0410554 L9.81202857,1.80232093 C10.7619795,0.660421653 12.1704595,-3.27985461e-15 13.6558351,0 L33.2678613,0 C34.7422874,-6.48809662e-15 36.1415448,0.650761495 37.0915715,1.77831713 L46.5294841,12.9798673 C46.833351,13.340517 47,13.7969439 47,14.2685404 L47,25.4413458 L47,25.4413458 L0,25.754717 L0,14.320127 C-5.01316105e-16,13.8528339 0.163626742,13.4002922 0.462477391,13.0410554 Z" id="Path-2" fill="#FFFFFF"></path>
                <path d="M0.499011858,13.0303022 L10.480219,1.69561409 C11.4294409,0.617674848 12.7963832,-1.51251168e-15 14.2326893,0 L33.2678613,0 C34.7422874,-3.82356136e-15 36.1415448,0.650761495 37.0915715,1.77831713 L46.5294841,12.9798673 C46.833351,13.340517 47,13.7969439 47,14.2685404 L47,25.4413458 L47,25.4413458 L0,25.754717 L0,14.3520566 C8.2858457e-16,13.8654359 0.177415336,13.3955082 0.499011858,13.0303022 Z" id="Path-2" stroke="#779EEA" stroke-width="2"></path>
                <path d="M0,14.2075472 L0,29 C-1.95394836e-15,32.3137085 2.6862915,35 6,35 L41,35 C44.3137085,35 47,32.3137085 47,29 L47,14.2075472 C47,13.6552624 46.5522847,13.2075472 46,13.2075472 L37.5573105,13.2075472 C35.9004562,13.2075472 34.5573105,14.5506929 34.5573105,16.2075472 L34.5573105,17.3849937 C34.5573105,18.4895632 33.66188,19.3849937 32.5573105,19.3849937 L15.9697709,19.3849937 C14.8652014,19.3849937 13.9697709,18.4895632 13.9697709,17.3849937 L13.9697709,16.2075472 C13.9697709,14.5506929 12.6266252,13.2075472 10.9697709,13.2075472 L1,13.2075472 C0.44771525,13.2075472 -6.76353751e-17,13.6552624 0,14.2075472 Z" id="Path" fill="#F8FAFE"></path>
                <path d="M0,14.2075472 L0,29 C-1.95394836e-15,32.3137085 2.6862915,35 6,35 L41,35 C44.3137085,35 47,32.3137085 47,29 L47,14.2075472 C47,13.6552624 46.5522847,13.2075472 46,13.2075472 L37.6460338,13.2075472 C35.940179,13.2075472 34.5573105,14.5904157 34.5573105,16.2962705 C34.5573105,18.0021252 33.174442,19.3849937 31.4685872,19.3849937 L17.0584942,19.3849937 C15.3526395,19.3849937 13.9697709,18.0021252 13.9697709,16.2962705 C13.9697709,14.5904157 12.5869024,13.2075472 10.8810477,13.2075472 L1,13.2075472 C0.44771525,13.2075472 -6.76353751e-17,13.6552624 0,14.2075472 Z" id="Path" stroke="#779EEA" stroke-width="2"></path>
            </g>
        </g>
    </g>
</svg>