<svg width="14" height="14" viewBox="0 0 14 14" fill="none" xmlns="http://www.w3.org/2000/svg">
  <g opacity="0.65">
    <path d="M12.1844 4.64465V9.27654C12.1844 10.9153 10.893 12.2482 9.29386 12.2482C7.69561 12.2482 6.40329 10.9153 6.40329 9.27654V8.85074H7.29266V9.27654C7.29266 10.426 8.19097 11.3536 9.29386 11.3536C10.3967 11.3536 11.295 10.426 11.295 9.27654V4.64465H12.1844ZM1.93311 9.56815C2.2634 9.56815 2.58013 9.70006 2.8136 9.93498C3.04735 10.1704 3.17846 10.4887 3.1783 10.8205C3.1783 11.1526 3.04714 11.4712 2.8136 11.706C2.69828 11.8222 2.56113 11.9144 2.41003 11.9774C2.25893 12.0403 2.09687 12.0728 1.93318 12.0728C1.76947 12.0728 1.6074 12.0403 1.45629 11.9774C1.30518 11.9144 1.16801 11.8222 1.05268 11.706C0.818933 11.4706 0.687826 11.1523 0.687988 10.8205C0.687988 10.4884 0.81914 10.1698 1.05268 9.93498C1.16801 9.8188 1.30518 9.72658 1.45629 9.66362C1.6074 9.60067 1.76947 9.56822 1.93318 9.56815H1.93311ZM1.93311 10.4627C1.88635 10.4627 1.84006 10.472 1.7969 10.49C1.75373 10.508 1.71455 10.5343 1.68161 10.5675C1.6148 10.6347 1.57732 10.7257 1.57736 10.8205C1.57736 10.9154 1.61486 11.0064 1.68161 11.0735C1.71456 11.1067 1.75375 11.133 1.79693 11.151C1.8401 11.169 1.88641 11.1783 1.93318 11.1783C1.97994 11.1783 2.02623 11.169 2.06939 11.151C2.11255 11.133 2.15173 11.1067 2.18468 11.0735C2.25148 11.0063 2.28896 10.9153 2.28892 10.8205C2.28898 10.7257 2.25153 10.6348 2.18475 10.5675C2.15179 10.5343 2.1126 10.508 2.06942 10.49C2.02625 10.472 1.97995 10.4627 1.93318 10.4627H1.93311ZM4.40222 1.51379C6.00137 1.51379 7.29273 2.84665 7.29273 4.48543V4.91033H6.40329V4.48543C6.40329 3.33506 5.50497 2.40833 4.40215 2.40833C3.29926 2.40833 2.40095 3.33506 2.40095 4.48543V9.11731H1.51165V4.48543C1.51158 2.84665 2.80383 1.51379 4.40215 1.51379H4.40222ZM6.84808 5.53919C7.02346 5.53927 7.19709 5.57403 7.35898 5.64147C7.52087 5.70891 7.66783 5.8077 7.79139 5.93216C8.04182 6.18442 8.18228 6.52552 8.1821 6.88098C8.18226 7.23645 8.04178 7.57755 7.79133 7.8298C7.66775 7.95427 7.52079 8.05307 7.35888 8.12051C7.19698 8.18795 7.02333 8.22271 6.84794 8.22278C6.67256 8.22269 6.49893 8.18793 6.33704 8.12049C6.17515 8.05305 6.02819 7.95426 5.90462 7.8298C5.65419 7.57754 5.51374 7.23644 5.51392 6.88098C5.51373 6.52552 5.65419 6.18442 5.90462 5.93216C6.0282 5.8077 6.17517 5.70891 6.33707 5.64146C6.49898 5.57402 6.67262 5.53926 6.84801 5.53919H6.84808ZM6.84808 6.43372C6.78961 6.43375 6.73173 6.44534 6.67776 6.46782C6.62379 6.4903 6.5748 6.52324 6.53361 6.56473C6.45011 6.6488 6.40326 6.76249 6.40329 6.88098C6.40329 6.99961 6.45008 7.11335 6.53355 7.19723C6.57474 7.23872 6.62372 7.27166 6.67769 7.29414C6.73166 7.31663 6.78954 7.32822 6.84801 7.32825C6.90647 7.32822 6.96435 7.31662 7.01832 7.29414C7.07229 7.27166 7.12128 7.23872 7.16247 7.19723C7.24593 7.11315 7.29274 6.99946 7.29266 6.88098C7.29266 6.76235 7.24587 6.64861 7.16247 6.56473C7.12128 6.52324 7.07229 6.4903 7.01832 6.46782C6.96435 6.44534 6.90647 6.43375 6.84801 6.43372H6.84808ZM11.7398 1.51379C11.915 1.51379 12.0884 1.54847 12.2503 1.61591C12.4122 1.68334 12.5592 1.78222 12.6831 1.90677C12.8071 2.03152 12.9054 2.17945 12.9723 2.34213C13.0394 2.50501 13.0739 2.67945 13.0738 2.85559C13.0738 3.03174 13.0393 3.20625 12.9722 3.36905C12.9053 3.53173 12.8071 3.67966 12.683 3.80441C12.5593 3.92892 12.4122 4.02776 12.2502 4.09527C12.0885 4.16268 11.915 4.19739 11.7397 4.19739C11.5643 4.19731 11.3907 4.16255 11.2288 4.0951C11.0669 4.02766 10.9199 3.92887 10.7963 3.80441C10.5459 3.55215 10.4054 3.21105 10.4056 2.85559C10.4054 2.50013 10.5459 2.15903 10.7963 1.90677C10.9199 1.78231 11.0669 1.68352 11.2288 1.61608C11.3907 1.54864 11.5643 1.51387 11.7397 1.51379H11.7398ZM11.7398 2.40833C11.6813 2.40835 11.6234 2.41994 11.5695 2.44243C11.5155 2.46491 11.4665 2.49785 11.4253 2.53934C11.3418 2.62342 11.295 2.73711 11.2951 2.85559C11.295 2.97407 11.3418 3.08776 11.4253 3.17184C11.4665 3.21333 11.5155 3.24627 11.5695 3.26875C11.6234 3.29124 11.6813 3.30283 11.7398 3.30286C11.7983 3.30283 11.8561 3.29124 11.9101 3.26875C11.9641 3.24627 12.0131 3.21333 12.0542 3.17184C12.1377 3.08776 12.1846 2.97407 12.1845 2.85559C12.1846 2.73711 12.1377 2.62342 12.0542 2.53934C12.0131 2.49785 11.9641 2.46491 11.9101 2.44243C11.8561 2.41994 11.7983 2.40835 11.7398 2.40833Z" fill="black"/>
  </g>
</svg>
