<svg width="14" height="14" viewBox="0 0 14 14" fill="none" xmlns="http://www.w3.org/2000/svg">
  <path d="M13.0731 3.78443H13.0735L6.88083 0.68811L0.69948 3.77879H0.687988V9.97754L6.8809 13.0739L13.0738 9.97754V3.78443H13.0731ZM6.8809 1.43828L11.5376 3.77266L9.76432 4.66671L5.08523 2.33928L6.88083 1.43828H6.8809ZM4.27368 2.77849L9.01291 5.06209L6.88049 6.09493L2.22411 3.78443L4.27368 2.77856V2.77849ZM1.4621 4.56769H1.70824L1.4621 4.55861V4.17162L6.49391 6.68773V12.1067L1.4621 9.59062V4.56769ZM12.2996 4.94581V9.59062L7.26775 12.1067V6.68773L12.2996 4.17162V4.94581Z" fill="black" fill-opacity="0.65"/>
</svg>
