<?xml version="1.0" encoding="UTF-8"?>
<svg width="806px" height="96px" viewBox="0 0 806 96" version="1.1" xmlns="http://www.w3.org/2000/svg" xmlns:xlink="http://www.w3.org/1999/xlink">
    <!-- Generator: Sketch 63 (92445) - https://sketch.com -->
    <title>编组 20</title>
    <desc>Created with Sketch.</desc>
    <defs>
        <linearGradient x1="50%" y1="0%" x2="50%" y2="100%" id="linearGradient-1">
            <stop stop-color="#F1F5F9" offset="0%"></stop>
            <stop stop-color="#F1F7FB" offset="100%"></stop>
        </linearGradient>
    </defs>
    <g id="AS邮件" stroke="none" stroke-width="1" fill="none" fill-rule="evenodd">
        <g id="邮件" transform="translate(-23.000000, -534.000000)">
            <g id="编组-20" transform="translate(23.000000, 534.000000)">
                <path d="M4,0 L801.193717,0 C803.402856,-6.3193319e-14 805.193717,1.790861 805.193717,4 L805.193717,96 L805.193717,96 L0,96 L0,4 C-2.705415e-16,1.790861 1.790861,4.05812251e-16 4,0 Z" id="Combined-Shape-Copy-7备份" fill="#F7FAFF" fill-rule="nonzero"></path>
                <path d="M50.104712,68.75322 C103.472513,92.6602583 159.128927,89.4030444 217.073953,58.9815784 C264.742201,26.9160189 385.199607,34.6806283 448.937827,67.3507853" id="Path-9" stroke="#6B96E8" stroke-width="1.5" stroke-dasharray="3,5" transform="translate(249.521270, 61.525185) scale(-1, 1) translate(-249.521270, -61.525185) "></path>
                <g id="Group-5" transform="translate(442.806283, 35.183246)" fill="#F8FAFE" stroke="#789FEA" stroke-width="1.5">
                    <polygon id="Path-4" transform="translate(20.065421, 16.097166) rotate(11.000000) translate(-20.065421, -16.097166) " points="2.36186837 20.2749092 37.7689731 3.27849777 31.256169 28.9158347 18.1260533 24.9726765 29.9723792 11.2332823 14.6125977 23.9900741"></polygon>
                    <polygon id="Path-5" transform="translate(14.381636, 29.622732) rotate(11.000000) translate(-14.381636, -29.622732) " points="12.7035139 26.5399053 16.0854574 28.09105 12.6778152 32.7055588"></polygon>
                </g>
                <g id="编组" transform="translate(540.314136, 50.261780) scale(-1, 1) translate(-540.314136, -50.261780) translate(511.162304, 15.581152)" fill-rule="nonzero">
                    <g transform="translate(5.026178, 0.000000)" id="路径">
                        <path d="M12.679883,10.9112119 C9.88512095,11.6131394 4.73522238,14.1137561 3.65499975,18.387993 C2.03466581,24.8056157 5.27533369,34.2252317 0.150556575,43.4380299 C-1.48861846,46.371084 28.4687183,50.3256932 28.4687183,50.3256932 L34.2466533,17.8991507 C34.2466533,17.8991507 27.0242346,10.8610743 25.548349,10.3847663 C22.4960921,9.40081443 18.2631267,9.50735699 12.679883,10.9112119 Z" fill="#4E99FF"></path>
                        <g transform="translate(25.918891, 17.548187)">
                            <path d="M8.37800572,0.369765367 C9.42054617,2.95812294 12.0457384,18.3754586 9.11280832,22.0104402 C8.77994903,22.4303432 10.6326564,23.082133 10.2997971,24.9998992 C10.2432739,25.3195269 9.68432146,26.848726 9.68432146,26.848726 L7.29150273,27.4691798 L0.056523277,23.3578902 L1.44448375,21.6782781 L2.09764161,21.6908125 C2.09764161,21.6908125 2.71939766,21.1142292 2.54354746,20.4060345 C2.37397763,19.704107 4.20784395,18.5509405 6.97120416,6.58683731 C7.7876515,3.07093271 8.15191262,-0.200550708 8.37800572,0.369765367 Z" fill="#2B83FD"></path>
                            <path d="M5.57696333,21.2771767 L3.43535917,20.8071359 L2.56866892,20.6692573 C2.56238856,21.2521078 2.09136125,21.6908125 2.09136125,21.6908125 L3.74937737,21.7409502 L5.69000988,22.1608532 L8.03886606,23.4957689 L5.57696333,21.2771767 Z" fill="#ECB60D"></path>
                        </g>
                        <path d="M28.4373165,40.8183036 C28.4373165,40.8183036 30.0890523,40.7995346 31.5021342,41.6644095 C32.5760765,42.3224666 33.5620936,43.7576576 32.5760765,44.5285243 C31.5900593,45.3056583 30.0702112,46.0263874 30.0702112,46.0263874 C30.0702112,46.0263874 26.3019927,46.1391972 28.4373165,40.8183036 Z" fill="#C4D1E1"></path>
                        <path d="M32.5697961,44.5849292 L31.5586575,44.3718441 C31.5586575,44.3718441 28.0856161,44.0584836 27.5957477,44.3279736 C27.099599,44.6037309 25.5106669,45.6754237 25.5106669,45.6754237 L25.1840879,45.9762498 C25.1840879,45.9762498 25.9565727,46.4588249 27.0053935,45.7255614 C28.0542143,44.9985651 28.1421394,45.5563467 28.1421394,45.5563467 L27.9662892,46.4776265 L27.9851303,47.6558619 L27.8218408,48.1509715 C27.8218408,48.1509715 27.6773925,48.4204615 27.790439,48.5207369 C28.117018,48.8027613 28.4498773,48.6711499 28.4498773,48.6711499 L29.5049784,46.8348575 L29.7938752,48.8340973 C29.7938752,48.8340973 29.9383235,49.1035874 30.2649025,49.1725267 C30.5726403,49.241466 30.5789207,49.153725 30.5789207,49.153725 L30.8175745,48.6460811 C30.842696,48.7526236 30.8992193,48.8905022 31.0248265,48.9907776 C31.2886018,49.1975955 31.652863,49.1662595 31.652863,49.1662595 L31.5523771,47.060477 L31.9857222,48.1321699 C31.9857222,48.1321699 32.136451,48.3953927 32.4567496,48.4705992 C32.8084499,48.5520729 32.9026554,48.5771417 32.9026554,48.5771417 L32.5697961,44.5849292 Z" fill="#E4EEF3"></path>
                        <g transform="translate(2.053507, 13.787861)">
                            <g>
                                <path d="M12.5418871,22.5556874 C12.5418871,22.5556874 15.0603131,28.9231724 21.1145841,30.6278534 C22.1634049,30.9224123 22.8040021,32.05051 22.301573,32.4140081 C21.6546955,32.8777817 20.7691641,32.9843242 19.249316,32.978057 C16.0840125,32.9717898 11.7756827,31.9878379 8.79879012,29.1111887 C4.38997451,24.8557533 3.00201404,22.9191856 3.4479199,20.7757999 C3.88754538,18.626147 12.5418871,22.5556874 12.5418871,22.5556874 Z" fill="#E9D6B8"></path>
                                <path d="M2.46190273,2.45047896 C1.18070845,4.54999418 0.439625488,7.92802017 0.445866254,12.7600388 C0.45846658,16.5015629 3.68657373,22.6246267 4.1827225,24.5047896 C4.26436723,24.8181501 4.46533888,26.1656002 4.46533888,26.1656002 L8.04514643,29.6689703 L15.2361633,24.8118829 L13.0505966,21.4651929 L12.3974388,21.5341322 C12.3974388,21.5341322 11.9892151,19.6853054 12.0959813,18.9708435 C12.2090278,18.2501144 10.1051059,8.60487881 9.06884578,2.42541012 C8.46593082,-1.13436494 3.73053628,0.369765367 2.46190273,2.45047896 Z" fill="#2B83FD"></path>
                                <path d="M8.89299558,21.4150553 L10.9843568,20.7695327 L11.8384863,20.5564475 C11.8887293,21.139298 12.3974388,21.5341322 12.3974388,21.5341322 L10.7519834,21.7221485 L8.84903303,22.2987318 L6.61950377,23.827931 L8.89299558,21.4150553 Z" fill="#4E99FF"></path>
                            </g>
                            <path d="M20.6561176,30.6090518 L24.3175698,29.6125654 C24.3175698,29.6125654 25.3538299,30.9976188 25.1591386,31.3423153 C24.9644473,31.6870118 25.1591386,33.7426566 25.1591386,33.7426566 L23.3880759,35.2467869 L21.9435922,34.7642118 C21.9435922,34.7642118 21.8431064,34.1374908 22.3329748,34.0748187 C22.8291235,34.0121466 22.0001155,33.6549156 21.7426205,33.5045026 C21.4851256,33.3603568 19.3623626,32.2698623 20.6561176,30.6090518 Z" fill="#E9D6B8"></path>
                        </g>
                        <path d="M17.1012593,10.5978515 C16.6930356,11.7572852 17.3085113,13.035796 18.4703787,13.4431646 L20.5491792,14.1701609 C21.7110466,14.5775296 22.9922408,13.963343 23.4004645,12.8039092 L25.2468916,7.53318596 C25.6551152,6.37375218 25.0396395,5.09524142 23.8777722,4.68787279 L21.7989717,3.96087648 C20.6371043,3.55350785 19.35591,4.1676944 18.9476864,5.32712818 L17.1012593,10.5978515 Z" fill="#E4EEF3"></path>
                        <g transform="translate(16.498344, 0.000000)">
                            <path d="M9.66548037,15.2293194 C9.45194799,15.9939189 8.66062211,16.445158 7.88813732,16.2320729 L1.62033394,14.5085903 C0.847849155,14.2955051 0.401943303,13.5058367 0.609195319,12.7349699 L3.16530351,3.47203413 C3.37883589,2.70743455 4.17016177,2.25619546 4.94264655,2.46928059 L11.2104499,4.19276323 C11.9766544,4.40584836 12.4288406,5.19551677 12.2215886,5.96638356 L9.66548037,15.2293194 Z" fill="#E9D6B8"></path>
                            <path d="M11.7003183,7.87788249 C11.7003183,7.87788249 12.7868213,7.21355827 13.0945592,6.69964708 C13.2515683,6.44269149 13.2704094,5.31459376 12.6863355,4.71920884 C12.1022616,4.12382393 11.3109358,4.71294163 11.3109358,4.71294163 C11.3109358,4.71294163 12.2529904,5.64048866 12.24671,5.88490983 C12.24671,6.13559822 11.7003183,7.87788249 11.7003183,7.87788249 Z" fill="#163F59"></path>
                            <path d="M1.3816801,7.46424666 C1.3816801,7.46424666 1.41936229,3.64124879 1.88410923,2.65102967 C2.34257581,1.65454334 2.65659402,0.958883072 3.96919012,1.20330425 C5.92866372,1.55426799 5.84073862,1.96790382 6.92724161,1.64200892 C8.02002497,1.31611402 10.0674237,0.382299787 10.6828994,0.401101416 C11.7003183,0.432437464 13.1134003,1.16570099 12.6737748,2.97065736 C12.3534762,4.30557301 13.1008395,4.86335466 13.0631573,4.90722513 C12.9438304,5.05137095 12.5544479,5.10777584 11.8636078,5.23938724 C9.87901275,5.62795424 8.78622939,5.51514446 7.54899766,4.80068257 C6.31176593,4.08622067 4.03199376,2.65102967 3.47304135,3.55350785 C2.90780858,4.45598604 2.19812744,7.50184991 2.01599688,7.70240062 C1.83386632,7.90295133 1.56381066,7.70866783 1.3816801,7.46424666 Z" fill="#194866"></path>
                            <path d="M2.58751001,10.792135 C2.51842601,11.0490906 2.24837035,11.1995036 1.99715579,11.1242971 L0.640597139,10.7545317 C0.383102211,10.6855924 0.238653836,10.4161024 0.307737841,10.165414 L0.986017165,7.69613341 C1.05510117,7.43917782 1.31887646,7.28876479 1.58265176,7.35770409 L2.9392104,7.72746946 C3.19670533,7.79640876 3.34743407,8.05963157 3.2720697,8.31658716 L2.58751001,10.792135 Z" fill="#E9D6B8"></path>
                            <path d="M10.6640583,13.00446 C10.5886939,13.2614156 10.3249186,13.4118286 10.0674237,13.3428893 L8.71086502,12.9731239 C8.45965046,12.9041846 8.30892172,12.6346946 8.37800572,12.377739 L9.05628505,9.90845841 C9.12536905,9.65150281 9.38914434,9.50108978 9.64663927,9.5762963 L11.0031979,9.94606166 C11.2606928,10.015001 11.4051412,10.284491 11.3423376,10.5414466 L10.6640583,13.00446 Z" fill="#E9D6B8"></path>
                            <path d="M1.75850195,8.44193136 C1.75850195,8.44193136 0.753643693,12.0894474 0.414504031,13.305286 C0.113046554,14.4020477 -0.113046554,16.9340004 6.10451392,18.6449486 C9.79108765,19.6602366 10.400283,16.921466 10.6452172,16.0315222 C10.8336281,15.3546636 10.6263761,13.1235369 10.3437597,12.6284274 C10.331199,12.615893 9.92925566,14.1325577 9.92925566,14.1325577 C9.92925566,14.1325577 9.5712749,12.4592127 7.81905332,11.9703704 C4.99288947,11.1995036 3.90010611,12.6660306 2.66287438,12.3025325 C1.70825904,12.020508 1.41308192,10.2594221 1.75850195,8.44193136 Z" fill="#194866"></path>
                            <path d="M5.99774773,14.051084 L7.93209987,14.5837968 C8.18331444,14.6527361 8.45337009,14.5023231 8.5224541,14.2453675 L8.59781847,13.9821447 L5.7402528,13.1924762 L5.66488843,13.4619663 C5.58952406,13.7189219 5.7402528,13.9821447 5.99774773,14.051084 Z" fill="#E9D6B8"></path>
                        </g>
                    </g>
                    <path d="M58.022866,51.175318 C57.1203305,53.7269891 41.3005349,63.1090877 35.9997276,62.5507067 L20.0210349,63.3298429 C6.43215472,61.6352217 0,40.0661341 0,40.0661341 C0.540250149,34.6511374 13.9257421,42.494442 18.699011,44.9292427 C26.2561573,48.7794741 31.0357821,48.9742582 31.0357821,48.9742582 C36.0950658,49.5066679 41.9488351,45.5200876 48.3301428,45.377246 C55.3406829,45.2344044 59.4465841,47.1562737 58.022866,51.175318 Z" id="路径" fill="#282723"></path>
                    <g transform="translate(22.115183, 33.675393)" id="路径">
                        <path d="M0.330701998,16.5496577 C0.330701998,16.5428917 0.324342344,16.5361257 0.31798269,16.5293596 L0.31798269,15.8256947 L27.8362047,15.29118 L27.848924,15.9948449 C27.848924,15.9948449 27.8552837,16.008377 27.848924,16.021909 L27.7853275,16.1572292 C27.4419062,16.772936 26.8059408,16.9014901 26.0809403,16.9150222 L2.13048403,17.3751108 C1.40548349,17.3886428 0.769518111,17.2939186 0.40065819,16.6849778 L0.330701998,16.5496577 Z" fill="#B6C2C9"></path>
                        <path d="M6.96382092,16.5428917 C6.96382092,16.5428917 6.97018057,16.5564237 6.96382092,16.5631897 L6.90022438,16.6782118 C6.79211027,16.8405961 6.65855754,16.9556182 6.50592585,17.0435763 L2.32127364,17.1247684 C1.62171172,17.1383004 1.01118496,17.0638743 0.661403996,16.5699557 L0.597807458,16.4616996 C0.591447804,16.4549335 0.58508815,16.4549335 0.58508815,16.4414015 L0.58508815,16.0963351 L6.96382092,15.9745469 L6.96382092,16.5428917 Z" fill="#D8E5ED"></path>
                        <polygon fill="#879BA6" points="10.6778587 16.2790173 24.4274303 16.015143 24.4210706 15.5144583 10.6651394 15.7850987"></polygon>
                        <path d="M7.1037333,15.6633105 L10.4234726,1.20434958 C10.5125077,0.825453081 10.8686484,0.507450665 11.2311486,0.500684656 L30.5390576,0.128441103 C30.8951982,0.121788159 31.1177861,0.419492549 31.0287509,0.805155054 L27.7090116,15.264116 L7.1037333,15.6633105 Z" fill="#B0BFDE"></path>
                    </g>
                    <g transform="translate(5.026178, 58.806283)" id="路径">
                        <path d="M13.6355901,8.3827908 C15.5311773,8.6948509 16.9718235,6.57161848 16.9718235,6.57161848 L21.8624383,2.84525381 L20.826184,0.324297746 L11.304018,4.46674254 C11.304018,4.46674254 11.7463216,8.07073071 13.6355901,8.3827908 Z" fill="#E9D6B8"></path>
                        <path d="M16.9781491,6.4308855 C16.9781491,6.4308855 16.9844607,6.65116321 16.6179806,7.61793763 C16.2515004,8.59083087 15.8091967,8.92736626 15.3352999,9.06809925 C13.5092177,9.58819941 12.1949439,9.32508992 7.80350037,10.1450125 C3.41205684,10.9649351 2.0977831,10.3469338 0.815102468,8.38890963 C-0.473896784,6.4308855 0.859332835,4.8889415 3.0013463,4.72985204 C6.10379058,4.5034555 7.82245625,4.84610972 9.44002393,4.60747553 C11.1270965,4.35660369 11.2345131,3.99559299 12.226537,3.40206692 C13.1553747,2.85137264 14.0083889,6.13718188 13.1301002,6.90203506 C12.3592281,7.57510585 16.3210052,7.67300706 16.9781491,6.4308855 Z" fill="#2B83FD"></path>
                        <path d="M16.0366672,8.32160255 C14.2105849,8.84170271 12.8963111,8.57859322 8.50486761,9.39851582 C4.11342408,10.2184384 2.79915034,9.60043706 1.51015108,7.64241293 C0.916200449,6.73682677 0.88460733,5.92914182 1.23213164,5.2989028 C0.265382199,5.94137947 -0.0631862378,7.06724334 0.808783844,8.38890963 C2.09146447,10.3469338 3.40573822,10.9649351 7.79718175,10.1450125 C12.1886253,9.32508992 13.502899,9.58819941 15.3289813,9.06809925 C15.6954615,8.96407922 16.0429858,8.73156385 16.3462797,8.19310722 C16.2515004,8.24205782 16.1440838,8.2848896 16.0366672,8.32160255 Z" fill="#FFFFFF"></path>
                        <path d="M16.9718235,6.48595493 C16.9781421,6.44924198 16.9781421,6.4308855 16.9781421,6.4308855 C16.9655049,6.4553608 16.9528676,6.47371728 16.9339117,6.49819258 C16.946549,6.49207375 16.9591862,6.49207375 16.9718235,6.48595493 Z" fill="#E9D6B8"></path>
                        <g transform="translate(6.318624, 4.283178)" fill="#FFFFFF">
                            <path d="M1.1689454,3.67741407 C1.02993568,3.72636467 0.903563201,3.469374 0.859332835,3.10836331 C0.777190726,2.37410426 0.606587883,1.63984521 0.353842932,0.917823811 C0.227470456,0.556813112 0.227470456,0.238634191 0.385436051,0.195802413 C0.537083022,0.159089461 0.789827973,0.416080127 0.909881825,0.764853176 C1.14998953,1.48075575 1.31427375,2.20889597 1.39009723,2.93091737 C1.42169035,3.29192807 1.31427375,3.62234464 1.1689454,3.67741407 Z"></path>
                            <path d="M2.53376814,3.43877988 C2.38212117,3.469374 2.24943007,3.21850216 2.2051997,2.87584794 C2.12305759,2.19053949 1.95877337,1.49911222 1.70602842,0.813803779 C1.58597457,0.477268382 1.59229319,0.183564762 1.75025879,0.165208286 C1.91454301,0.14685181 2.16728796,0.397723651 2.28734181,0.734259048 C2.52744951,1.41344867 2.68541511,2.09875711 2.76123859,2.77182791 C2.79283171,3.10836331 2.67909648,3.40206692 2.53376814,3.43877988 Z"></path>
                            <path d="M3.96177711,3.37759162 C3.80381152,3.3959481 3.65216455,3.13283861 3.59529693,2.77794673 C3.48156171,2.07428181 3.28568437,1.36449807 3.0013463,0.654714318 C2.86233657,0.30594127 2.86233657,0.0122376508 3.03293942,0.0061188254 C3.20354226,8.67361738e-19 3.46892446,0.269228318 3.60161556,0.618001366 C3.87331638,1.32166629 4.06287509,2.02533121 4.1702917,2.7228773 C4.22084069,3.0594127 4.11342408,3.35923515 3.96177711,3.37759162 Z"></path>
                        </g>
                    </g>
                    <path d="M18.5968586,59.4670975 C18.5968586,59.4670975 51.9183316,47.2632213 53.816866,47.246473 C60.2518327,47.1906456 58.779372,52.9966984 55.5148952,55.7266597 C51.6677,58.9479024 22.4127249,64.8376963 22.4127249,64.8376963 L18.5968586,59.4670975 Z" id="路径" fill="#323B31"></path>
                    <g transform="translate(0.000000, 33.675393)" id="路径">
                        <polygon fill="#E9D6B8" points="30.2596077 29.5498429 21.5072271 20.8168996 25.2384417 16.9264242 34.792521 27.499886"></polygon>
                        <path d="M32.0739786,22.6828046 C32.0739786,22.6828046 9.80724736,1.19316376 8.30632259,0.552155569 C3.22487851,-1.61838701 0.0723337236,4.29031224 0.253168033,6.33392251 C0.488252634,8.98046127 23.1106247,30.5018352 23.1106247,30.5018352 L32.0739786,22.6828046 Z" fill="#3C463B"></path>
                        <g transform="translate(28.330708, 25.386463)">
                            <path d="M16.9381469,4.84881442 C17.4565386,5.35654368 17.5469558,6.84799838 17.5469558,6.84799838 C17.5469558,6.84799838 10.1206935,9.80552131 7.50462382,9.85629424 C6.82950907,9.87533409 5.60586358,9.58338976 4.43646838,9.24701913 C4.23755064,9.18989959 3.78546487,8.65678386 3.59257494,8.59331771 C3.23693413,8.48542524 3.1585726,8.84718234 2.85115427,8.74563649 C2.06151112,8.47907862 1.49489695,8.25694707 1.47681352,8.21252076 C-0.0904171545,4.69649565 0.440030152,2.97021616 0.440030152,2.97021616 C0.440030152,2.97021616 3.85779859,3.99836791 3.26707318,3.19234772 C2.01328864,1.47241485 5.59380796,-0.285597708 6.38947892,0.628314958 C9.57216275,4.28396562 15.4311944,3.38274619 16.9381469,4.84881442 Z" fill="#2B83FD"></path>
                            <path d="M17.3540659,5.57867523 C15.0695257,6.53066759 10.2713887,8.5108117 9.31296691,8.58062448 C5.40091803,8.8725688 2.67031996,7.40650056 0.843893442,6.54970744 C1.00664432,7.05109008 1.21158987,7.60324565 1.48284133,8.21252076 C1.50092476,8.25060046 2.06753893,8.47907862 2.85718208,8.74563649 C3.1585726,8.84718234 3.24296194,8.48542524 3.59860275,8.59331771 C3.79149268,8.65678386 4.24357845,9.18989959 4.44249619,9.24701913 C5.61189139,9.58973638 6.82950907,9.87533409 7.51065163,9.85629424 C10.1206935,9.80552131 17.5529836,6.84799838 17.5529836,6.84799838 C17.5529836,6.84799838 17.5288723,6.16256388 17.3540659,5.57867523 Z" fill="#FFFFFF"></path>
                            <g transform="translate(4.822248, 1.903985)" fill="#FFFFFF">
                                <path d="M7.27556703,1.38990885 C7.34790075,1.52318778 7.05253805,1.68819979 6.63661914,1.77705241 C5.7927257,1.96110426 4.94883226,2.22766212 4.12302224,2.57672599 C3.71915895,2.75443123 3.34543472,2.79251092 3.29118442,2.64653876 C3.23693413,2.49421998 3.52024121,2.21496889 3.91807669,2.04361027 C4.73183108,1.70089302 5.56366891,1.44702839 6.40153454,1.26932315 C6.81745345,1.18681714 7.20926112,1.25662992 7.27556703,1.38990885 Z"></path>
                                <path d="M5.61189139,0.77428712 C5.67216949,0.913912666 5.38886241,1.11065775 4.98499912,1.23124345 C4.15918911,1.48510808 3.35146253,1.82147872 2.55579157,2.23400874 C2.17001171,2.44344706 1.80834309,2.5005666 1.76012061,2.34824782 C1.71189812,2.18958243 1.97712178,1.87859826 2.36290164,1.68185317 C3.14651698,1.27566976 3.95424356,0.951992361 4.76799795,0.710820963 C5.16583343,0.590235264 5.54558548,0.634661574 5.61189139,0.77428712 Z"></path>
                                <path d="M4.00246604,0.228478167 C4.06274414,0.374450328 3.78546487,0.596581879 3.38762939,0.755247273 C2.59195843,1.07257806 1.80834309,1.47241485 1.04883899,1.95475765 C0.675114753,2.18958243 0.331529566,2.27843505 0.283307084,2.11342304 C0.235084602,1.95475765 0.488252634,1.6120404 0.861976873,1.37721561 C1.61545316,0.90756605 2.39304069,0.52042249 3.18268384,0.215784935 C3.58051932,0.0634661574 3.94821575,0.0825060046 4.00246604,0.228478167 Z"></path>
                            </g>
                        </g>
                    </g>
                </g>
                <g id="编组-19" transform="translate(597.612565, 0.000000)">
                    <path d="M159.740384,95.9077086 C159.585566,91.7720555 159.470701,80.46511 156.591582,77.1052036 C153.967163,74.0421264 150.288982,72.0391533 146.475959,70.7221298 C132.394992,65.8581228 75.1140114,85.3724443 61.0080738,87.9191884 C46.3902372,90.558224 30.2317095,90.6031225 16.7600271,83.5116498 C8.93671281,79.3934572 2.3319677,72.2770408 0.549061081,63.6216027 C-2.0428956,51.0300605 4.91393611,39.1843327 13.601236,30.6311635 C23.4371872,20.9505424 34.7389174,15.3207661 47.8385366,11.6166377 C54.0737157,9.8531234 88.776208,48 102.008441,46.3699864 C118.471939,44.3419292 103.480683,37.610342 98.2767934,32.883525 C96.246677,31.040191 94.5261971,28.3886836 95.0980257,25.7097383 C96.428963,19.4763262 107.396843,23.9184426 112.018916,20.4512786 C119.013204,15.2031398 127.420832,8.5007876 130.277478,0 L207.109766,0 C207.109766,0 207.109766,96 207.109766,96 C205.389286,96 163.655787,95.9077086 159.740384,95.9077086 Z" id="路径" fill="#EDF4FE" fill-rule="nonzero"></path>
                    <g id="编组" transform="translate(80.952698, 18.094241)" fill-rule="nonzero">
                        <path d="M75.2251309,45.998506 L0.187847057,45.998506 L0.187847057,3.62261108 C0.187847057,1.62708402 1.84800888,0.00741831621 3.89909567,0.00741831621 L71.5164208,0.00741831621 C73.5649691,0.00741831621 75.2276694,1.62461125 75.2276694,3.62261108 L75.2276694,45.998506 L75.2251309,45.998506 Z" id="路径" fill="#77A0DB"></path>
                        <rect id="矩形" fill="url(#linearGradient-1)" x="3.74932572" y="3.37780665" width="67.9143265" height="38.6519002"></rect>
                    </g>
                    <g id="编组" transform="translate(66.879400, 62.827225)" fill-rule="nonzero">
                        <polygon id="路径" fill="#97C1FF" points="100.92141 12.6137435 0.124723677 12.6137435 13.6547481 0.0054973822 87.3913857 0.0054973822"></polygon>
                        <path d="M97.3218848,17.4074607 L3.72424898,17.4074607 C1.73615358,17.4074607 0.124723677,15.6318063 0.124723677,13.4410995 L0.124723677,12.6137435 L100.92141,12.6137435 L100.92141,13.4410995 C100.92141,15.6290576 99.3099802,17.4074607 97.3218848,17.4074607 Z" id="路径" fill="#77A0DB"></path>
                        <g transform="translate(13.719604, 1.649215)" fill="#8FABEF" id="路径">
                            <path d="M9.53637231,1.76465969 L5.45541361,1.76465969 C5.32819546,1.76465969 5.26583362,1.59424084 5.35812914,1.49803665 L6.63280512,0.170418848 C6.65774985,0.142931937 6.69267248,0.129188482 6.73008959,0.129188482 L10.6289517,0.129188482 C10.7511809,0.129188482 10.8135428,0.288612565 10.7337196,0.387565445 L9.6411402,1.71518325 C9.61370099,1.74816754 9.57628389,1.76465969 9.53637231,1.76465969 Z"></path>
                            <path d="M15.9995532,1.76465969 L11.878683,1.76465969 C11.7589482,1.76465969 11.6940919,1.61073298 11.7714206,1.5117801 L12.7816824,0.184162304 C12.8091216,0.148429319 12.8465387,0.129188482 12.8889447,0.129188482 L16.8277184,0.129188482 C16.9399697,0.129188482 17.0073205,0.269371728 16.9424642,0.371073298 L16.114299,1.6986911 C16.0893543,1.73992147 16.0444538,1.76465969 15.9995532,1.76465969 Z"></path>
                            <path d="M22.4577452,1.76465969 L18.3019523,1.76465969 C18.1921955,1.76465969 18.1248447,1.63272251 18.1822176,1.52827225 L18.9305596,0.20065445 C18.9555044,0.153926702 19.0004049,0.126439791 19.0502944,0.126439791 L23.0214962,0.126439791 C23.1237696,0.126439791 23.1911204,0.244633508 23.1487144,0.346335079 L22.5824689,1.67395288 C22.5625131,1.73167539 22.5126236,1.76465969 22.4577452,1.76465969 Z"></path>
                            <path d="M28.9109482,1.76465969 L24.7327051,1.76465969 C24.6329261,1.76465969 24.5655753,1.65471204 24.6029924,1.55301047 L25.0894148,0.22539267 C25.111865,0.167670157 25.1617545,0.129188482 25.2191274,0.129188482 L29.215274,0.129188482 C29.3075695,0.129188482 29.3749203,0.222643979 29.35247,0.321596859 L29.0506387,1.64921466 C29.0331774,1.71793194 28.9758045,1.76465969 28.9109482,1.76465969 Z"></path>
                            <path d="M35.3591623,1.76465969 L31.1684468,1.76465969 C31.0811402,1.76465969 31.0137894,1.67670157 31.0312507,1.58049738 L31.2532589,0.252879581 C31.2657312,0.178664921 31.3231041,0.126439791 31.3904549,0.126439791 L35.3990739,0.126439791 C35.478897,0.126439791 35.5412589,0.197905759 35.5387644,0.285863874 L35.4988528,1.61348168 C35.4963583,1.6986911 35.4339965,1.76465969 35.3591623,1.76465969 Z"></path>
                            <path d="M41.799893,1.76465969 L37.6091774,1.76465969 C37.5343432,1.76465969 37.4719814,1.6986911 37.4694869,1.61623037 L37.4295753,0.288612565 C37.4270809,0.20065445 37.4894427,0.129188482 37.5692659,0.129188482 L41.5778848,0.129188482 C41.6452356,0.129188482 41.7026085,0.181413613 41.7150809,0.255628272 L41.937089,1.58324607 C41.9545503,1.67945026 41.8871995,1.76465969 41.799893,1.76465969 Z"></path>
                            <path d="M48.2356347,1.76465969 L44.0573915,1.76465969 C43.9925352,1.76465969 43.9376568,1.71518325 43.9201955,1.64646597 L43.6183642,0.318848168 C43.5959139,0.219895288 43.6632647,0.126439791 43.7555602,0.126439791 L47.7517068,0.126439791 C47.8090797,0.126439791 47.8614636,0.164921466 47.8814194,0.222643979 L48.3678418,1.55026178 C48.4027644,1.65471204 48.3354136,1.76465969 48.2356347,1.76465969 Z"></path>
                            <path d="M54.6663874,1.76465969 L50.5105945,1.76465969 C50.4557161,1.76465969 50.4058266,1.7289267 50.3833764,1.67670157 L49.8171309,0.34908377 C49.7722304,0.247382199 49.8420756,0.129188482 49.944349,0.129188482 L53.9155509,0.129188482 C53.9629459,0.129188482 54.0103409,0.156675393 54.0352856,0.203403141 L54.7836277,1.53102094 C54.8434951,1.63272251 54.7761443,1.76465969 54.6663874,1.76465969 Z"></path>
                            <path d="M61.0896568,1.76465969 L56.9687865,1.76465969 C56.9213915,1.76465969 56.8789855,1.73992147 56.8540407,1.6986911 L56.0258755,0.371073298 C55.9610192,0.269371728 56.02837,0.129188482 56.1406213,0.129188482 L60.079395,0.129188482 C60.121801,0.129188482 60.1592182,0.148429319 60.1866574,0.184162304 L61.1969191,1.5117801 C61.2742478,1.61348168 61.2093915,1.76465969 61.0896568,1.76465969 Z"></path>
                            <path d="M67.5129261,1.76465969 L63.4319674,1.76465969 C63.3920558,1.76465969 63.3546387,1.74541885 63.3271995,1.71243455 L62.2346201,0.384816754 C62.1523025,0.285863874 62.2171588,0.126439791 62.339388,0.126439791 L66.2382501,0.126439791 C66.2731728,0.126439791 66.3080954,0.142931937 66.3355346,0.167670157 L67.6102106,1.49528796 C67.7025061,1.59424084 67.6401443,1.76465969 67.5129261,1.76465969 Z"></path>
                            <path d="M7.49838743,4.24947644 L3.07568586,4.24947644 C2.94846771,4.24947644 2.88610588,4.07905759 2.9784014,3.9828534 L4.49254683,2.40235602 C4.51749156,2.37486911 4.55241419,2.36112565 4.5898313,2.36112565 L8.79551367,2.36112565 C8.91774287,2.36112565 8.98010471,2.52054974 8.90028156,2.61950262 L7.60315532,4.2 C7.57571611,4.2302356 7.53580454,4.24947644 7.49838743,4.24947644 Z"></path>
                            <path d="M14.4504852,4.24947644 L9.98787202,4.24947644 C9.86813729,4.24947644 9.80328098,4.09554974 9.88060966,3.99659686 L11.0829459,2.41609948 C11.1103851,2.38036649 11.1502967,2.36112565 11.1902083,2.36112565 L15.4358022,2.36112565 C15.5480535,2.36112565 15.6154043,2.5013089 15.550548,2.60301047 L14.5652309,4.18350785 C14.5402862,4.22473822 14.4978802,4.24947644 14.4504852,4.24947644 Z"></path>
                            <path d="M21.4000884,4.24947644 L16.9050471,4.24947644 C16.7952903,4.24947644 16.7279395,4.11753927 16.7853124,4.01308901 L17.6758394,2.43259162 C17.7007842,2.38586387 17.7456847,2.35837696 17.7955742,2.35837696 L22.0735963,2.35837696 C22.1758697,2.35837696 22.2432205,2.47657068 22.2008144,2.57827225 L21.5273066,4.15876963 C21.5048563,4.21374346 21.4549668,4.24947644 21.4000884,4.24947644 Z"></path>
                            <path d="M5.12364863,7.13835079 L0.304325771,7.13835079 C0.177107621,7.13835079 0.114745782,6.96793194 0.207041303,6.87172775 L2.02052356,4.98062827 C2.0454683,4.95314136 2.08039092,4.93939791 2.11780803,4.93939791 L6.67770564,4.93939791 C6.79993485,4.93939791 6.86229668,5.09882199 6.78247353,5.19777487 L5.22841652,7.08887435 C5.20097731,7.11910995 5.16356021,7.13835079 5.12364863,7.13835079 Z"></path>
                            <path d="M12.6494753,7.13835079 L7.79024084,7.13835079 C7.67050611,7.13835079 7.6056498,6.98442408 7.68297848,6.8854712 L9.1222897,4.99437173 C9.14972891,4.95863874 9.18714602,4.93939791 9.22955207,4.93939791 L13.8293613,4.93939791 C13.9416126,4.93939791 14.0089634,5.07958115 13.944107,5.18128272 L12.7642211,7.0723822 C12.7392763,7.11361257 12.6943758,7.13835079 12.6494753,7.13835079 Z"></path>
                            <path d="M20.170313,7.13835079 L15.2786504,7.13835079 C15.1688935,7.13835079 15.1015428,7.00641361 15.1589156,6.90196335 L16.2240558,5.01086387 C16.2490006,4.96413613 16.2939011,4.93664921 16.3437906,4.93664921 L20.9760279,4.93664921 C21.0783013,4.93664921 21.1456521,5.05484293 21.1032461,5.1565445 L20.2975311,7.04764398 C20.2750809,7.1026178 20.2251914,7.13835079 20.170313,7.13835079 Z"></path>
                            <path d="M28.3447027,4.24947644 L23.8247167,4.24947644 C23.7249378,4.24947644 23.657587,4.1395288 23.6950041,4.03782723 L24.2712275,2.45732984 C24.2936777,2.39960733 24.3435672,2.36112565 24.4009401,2.36112565 L28.7039069,2.36112565 C28.7962024,2.36112565 28.8635532,2.45458115 28.841103,2.55353403 L28.4818988,4.13403141 C28.4669319,4.2 28.409559,4.24947644 28.3447027,4.24947644 Z"></path>
                            <path d="M50.1987853,7.13835079 L22.7695544,7.13835079 C22.6697755,7.13835079 22.6024247,7.02840314 22.6398418,6.92670157 L23.3308109,5.03560209 C23.3532612,4.97787958 23.4031507,4.93939791 23.4605236,4.93939791 L49.5078162,4.93939791 C49.5651891,4.93939791 49.617573,4.97787958 49.6375288,5.03560209 L50.328498,6.92670157 C50.3659151,7.02840314 50.2985643,7.13835079 50.1987853,7.13835079 Z"></path>
                            <path d="M35.2843281,4.24947644 L30.7518697,4.24947644 C30.6645631,4.24947644 30.5972123,4.16151832 30.6146736,4.06531414 L30.8790878,2.48481675 C30.8915602,2.41060209 30.9489331,2.35837696 31.0162839,2.35837696 L35.3317231,2.35837696 C35.4115462,2.35837696 35.4739081,2.42984293 35.4714136,2.51780105 L35.4240186,4.09829843 C35.4215241,4.18350785 35.3591623,4.24947644 35.2843281,4.24947644 Z"></path>
                            <path d="M42.21647,4.24947644 L37.6840116,4.24947644 C37.6091774,4.24947644 37.5468156,4.18350785 37.5443211,4.10104712 L37.4969261,2.52054974 C37.4944316,2.43259162 37.5567935,2.36112565 37.6366166,2.36112565 L41.9520558,2.36112565 C42.0194066,2.36112565 42.0767795,2.41335079 42.0892519,2.48756545 L42.3536661,4.06806283 C42.3711274,4.16151832 42.3037766,4.24947644 42.21647,4.24947644 Z"></path>
                            <path d="M49.143623,4.24947644 L44.623637,4.24947644 C44.5587807,4.24947644 44.5039023,4.2 44.486441,4.13128272 L44.1272368,2.55078534 C44.1047865,2.45183246 44.1721373,2.35837696 44.2644328,2.35837696 L48.5673997,2.35837696 C48.6247725,2.35837696 48.6771565,2.39685864 48.6971123,2.45458115 L49.2733357,4.03507853 C49.3107528,4.1367801 49.2409075,4.24947644 49.143623,4.24947644 Z"></path>
                            <path d="M56.0632926,4.24947644 L51.5682513,4.24947644 C51.5133729,4.24947644 51.4634834,4.21374346 51.4410332,4.16151832 L50.7675253,2.58102094 C50.7226248,2.47931937 50.79247,2.36112565 50.8947435,2.36112565 L55.1727656,2.36112565 C55.2201606,2.36112565 55.2675556,2.38861257 55.2925003,2.43534031 L56.1830273,4.0158377 C56.2404002,4.11479058 56.1730494,4.24947644 56.0632926,4.24947644 Z"></path>
                            <path d="M62.9804677,4.24947644 L58.5178546,4.24947644 C58.4704596,4.24947644 58.4280535,4.22473822 58.4031088,4.18350785 L57.4177917,2.60301047 C57.3529354,2.5013089 57.4202862,2.36112565 57.5325375,2.36112565 L61.7781315,2.36112565 C61.8205375,2.36112565 61.8579546,2.38036649 61.8853938,2.41609948 L63.0877301,3.99659686 C63.1650588,4.09554974 63.1002024,4.24947644 62.9804677,4.24947644 Z"></path>
                            <path d="M64.2401768,5.90418848 L59.5505666,5.90418848 C59.5031716,5.90418848 59.4607656,5.87945026 59.4358208,5.8382199 L59.0242327,5.17853403 C58.9593764,5.07683246 59.0267272,4.93664921 59.1389785,4.93664921 L63.7387877,4.93664921 C63.7811937,4.93664921 63.8186108,4.95589005 63.84605,4.99162304 L64.3474392,5.6513089 C64.4247679,5.75301047 64.3599116,5.90418848 64.2401768,5.90418848 Z"></path>
                            <path d="M65.1780989,7.13835079 L60.3188645,7.13835079 C60.2714695,7.13835079 60.2290634,7.11361257 60.2041187,7.0723822 L59.7451355,6.33573298 C59.6802792,6.23403141 59.74763,6.09384817 59.8598813,6.09384817 L64.6193368,6.09384817 C64.6617429,6.09384817 64.69916,6.11308901 64.7265992,6.14882199 L65.2878557,6.8854712 C65.3626899,6.98442408 65.2978336,7.13835079 65.1780989,7.13835079 Z"></path>
                            <path d="M72.664014,7.13835079 L67.8446911,7.13835079 C67.8047795,7.13835079 67.7673624,7.11910995 67.7399232,7.08612565 L67.1337661,6.34947644 C67.0514485,6.25052356 67.1163048,6.09109948 67.238534,6.09109948 L71.958078,6.09109948 C71.9930006,6.09109948 72.0279232,6.10759162 72.0553624,6.13232984 L72.7612984,6.86897906 C72.8535939,6.96793194 72.7912321,7.13835079 72.664014,7.13835079 Z"></path>
                            <path d="M57.6896894,7.13835079 L52.7980268,7.13835079 C52.7431483,7.13835079 52.6932589,7.1026178 52.6708086,7.05039267 L52.3565049,6.31374346 C52.3116044,6.21204188 52.3814497,6.09384817 52.4837231,6.09384817 L57.2756067,6.09384817 C57.3230017,6.09384817 57.3703967,6.12133508 57.3953415,6.16806283 L57.8094241,6.90471204 C57.8692914,7.00641361 57.8019407,7.13835079 57.6896894,7.13835079 Z"></path>
                            <path d="M69.8926539,4.24947644 L65.4699523,4.24947644 C65.4300407,4.24947644 65.3926236,4.2302356 65.3651844,4.19725131 L64.0680582,2.61675393 C63.9857405,2.51780105 64.0505969,2.35837696 64.1728261,2.35837696 L68.3785084,2.35837696 C68.4134311,2.35837696 68.4483537,2.37486911 68.4757929,2.39960733 L69.9899383,3.98010471 C70.0822339,4.0763089 70.019872,4.24947644 69.8926539,4.24947644 Z"></path>
                        </g>
                    </g>
                    <g id="编组" transform="translate(50.795630, 67.350785)" fill-rule="nonzero">
                        <path d="M11.0360509,12.016915 C8.93295438,12.6089408 5.67419596,12.5678615 3.38890052,12.016915 C2.84750935,11.8864277 2.34776365,11.6496174 2.23844428,11.1397503 L0.0650710546,1.01490133 L14.3598803,1.01490133 L12.1865071,11.1397503 C12.0771877,11.6496174 11.5722364,11.8646798 11.0360509,12.016915 Z" id="路径" fill="#CEE1F4"></path>
                        <ellipse id="椭圆形" fill="#93B9F4" cx="7.23590127" cy="1.01490133" rx="7.12397906" ry="1"></ellipse>
                        <path d="M14.0631563,2.40193315 C12.5717277,3.53765606 10.9397457,4.51147805 9.20364996,5.2919855 C8.71171279,5.51188079 8.18854151,5.73660894 7.86839192,6.14740234 C7.54824233,6.55819573 7.53783096,7.22513089 7.99593119,7.50302054 C8.18854151,7.61900926 8.47745699,7.70358437 8.47745699,7.9186468 C8.47745699,8.01288764 8.41238594,8.09746275 8.34471204,8.16753927 C7.8605834,8.6798228 7.12918474,8.9238824 6.56697083,9.36125654 C6.00475692,9.79863069 5.64035901,10.6395489 6.13750187,11.1421667 C6.3613463,11.3668949 6.63724757,11.5602094 6.94438295,11.6689489 C7.34782349,11.8115183 7.43632012,12.4422172 7.59509349,12.4422172 C9.73723261,12.4446234 11.0360509,12.0144986 11.0360509,12.0144986 C11.5956619,12.0144986 12.0771877,11.647201 12.1865071,11.1373339 L14.0631563,2.40193315 Z" id="路径" fill="#93B9F4"></path>
                    </g>
                    <g id="编组" transform="translate(53.811337, 7.036649)" fill-rule="nonzero">
                        <path d="M1.28064438,8.79195411 C0.849681836,6.98572948 0.940281917,5.32400282 1.23901732,3.49037339 C1.53530407,1.65674397 2.33111559,-0.0722489853 4.12597664,0.269065187 C5.84492952,0.595431293 6.46443818,2.72303934 6.56238421,4.2552161 C6.69950866,6.38282415 6.02612968,8.42821784 5.79840516,10.5209471 C5.45314539,13.6924284 6.16815143,17.1578883 6.98355215,20.2396813 C7.63979058,22.7110948 8.45763995,24.709153 9.09428917,27.5941297 C9.4860733,29.3679669 9.59381393,31.8343977 9.02327829,34.2211056 C8.44784535,36.6302356 4.67937173,45.2552696 3.94967378,54.0995419 C3.60196536,42.7888387 1.39328232,39.6173574 0.658687072,35.758265 C0.35505437,34.166296 0.0244865083,32.5867837 0.164059605,30.9723926 C0.524011277,26.8517091 1.64549335,22.8456274 2.32132098,18.7648054 C2.99714861,14.6889661 2.29928313,13.0621183 1.28064438,8.79195411 Z" id="路径" fill="#6BA0F0"></path>
                        <g transform="translate(1.224325, 4.982689)" fill="#5C8ED6" id="路径">
                            <path d="M2.32376963,56.0976001 C2.31642368,56.0976001 2.30907773,56.0976001 2.30418043,56.0976001 C2.17440193,56.0851434 2.07890455,55.9705415 2.08869915,55.8385003 C3.80520338,35.5315527 2.43151027,0.700067754 2.41926702,0.351279549 C2.41436971,0.2192383 2.5147644,0.107127806 2.64454289,0.101970319 C2.77187273,0.0971624285 2.88451067,0.199307546 2.88940797,0.331348795 C2.90409988,0.680137 4.27779299,35.5415181 2.55884011,55.8808531 C2.54904551,56.002929 2.44620217,56.0976001 2.32376963,56.0976001 Z"></path>
                            <path d="M3.15386226,35.2325914 C3.14896496,35.2325914 3.14651631,35.2325914 3.14406766,35.2325914 C3.01428917,35.2276087 2.91389448,35.1154982 2.91879178,34.9809656 C3.18324607,29.0092133 5.86207008,27.1581445 5.97715667,27.0809128 C6.08734595,27.0086638 6.23181635,27.0385599 6.30282723,27.1506704 C6.3738381,27.2602896 6.34445429,27.4097702 6.234265,27.4820192 L6.234265,27.4820192 C6.20732984,27.4994586 3.64114378,29.3007006 3.38893274,35.0033877 C3.38403544,35.1329376 3.28119211,35.2325914 3.15386226,35.2325914 Z"></path>
                            <path d="M3.19059203,30.9051263 C3.06571083,30.9051263 2.9628675,30.8079639 2.95552155,30.678414 C2.60291583,24.6169732 0.391784132,23.7674248 0.369746275,23.7574595 C0.247313733,23.7151066 0.181200161,23.5780827 0.222827225,23.4535154 C0.264454289,23.3289482 0.394232783,23.2616819 0.516665324,23.3015434 C0.619508659,23.3364223 3.05101893,24.2059014 3.42566251,30.6485178 C3.43300846,30.7805591 3.33506242,30.8951609 3.20528393,30.902635 C3.20038663,30.9051263 3.19548933,30.9051263 3.19059203,30.9051263 Z"></path>
                            <path d="M3.16855417,23.4560068 C3.16120822,23.4560068 3.15386226,23.4560068 3.14651631,23.4560068 C3.01673782,23.4435501 2.92124043,23.3264569 2.93348369,23.1944156 C3.37668949,18.4932489 4.84098268,17.1304836 4.90219895,17.0731826 C5.00014499,16.9859856 5.14951269,16.995951 5.23521547,17.0931134 C5.32091824,17.1927672 5.31112364,17.3422478 5.21562626,17.4319362 C5.19603705,17.4493756 3.82479259,18.7722795 3.401176,23.2392598 C3.39138139,23.363827 3.28853806,23.4560068 3.16855417,23.4560068 Z"></path>
                        </g>
                    </g>
                    <g id="编组" transform="translate(39.235421, 24.628272)" fill-rule="nonzero">
                        <path d="M2.81465969,8.07191175 C2.25119366,6.76166661 -0.181590947,1.80127391 0.216306864,0.110230949 C1.26312527,0.501049767 4.17392134,4.73241505 5.12994427,6.62638317 C6.29159224,8.8284969 8.55880863,12.1003519 10.1130135,14.104551 C11.3627865,15.7079102 12.0704571,16.128792 13.0051164,17.9325712 C13.6940938,19.2102481 14.7676168,24.5238809 14.84506,26.4328805 C15.0079577,30.0003548 14.0225598,30.706835 15.1361396,37.4409439 C12.7647754,28.9706976 7.7096039,23.9276316 6.89244464,21.4173723 C5.95244444,18.5563781 5.92573989,17.3939427 5.20204655,14.3325286 C4.43562594,11.2811355 4.60119415,12.0527522 2.81465969,8.07191175 Z" id="路径" fill="#6BA0F0"></path>
                        <g transform="translate(2.670455, 5.762072)" fill="#5C8ED6">
                            <path d="M13.4377301,38.3628754 C13.3042074,38.3628754 13.1920482,38.267676 13.1813664,38.1399083 C11.9048889,22.9631108 1.35926165,1.8263264 0.37653417,0.653869947 C0.352500075,0.641343702 0.333806889,0.626312209 0.315113703,0.606270219 C0.221647774,0.506060265 0.232329595,0.353240086 0.339147799,0.265556377 C0.411250087,0.205430405 0.526079657,0.187893663 0.61687513,0.222967147 C1.04948886,0.38831357 4.16323952,6.5662572 6.89244464,13.2953556 C9.60829749,19.9868752 12.9917641,29.7247775 13.6967643,38.1023296 C13.7074461,38.2351078 13.6032983,38.3503492 13.4617642,38.3628754 C13.4510824,38.3628754 13.443071,38.3628754 13.4377301,38.3628754 Z M0.675625143,0.628817458 C0.662272867,0.638838453 0.651591047,0.6463542 0.638238771,0.653869947 C0.651591047,0.648859449 0.664943322,0.641343702 0.675625143,0.628817458 Z" id="形状"></path>
                            <path d="M9.93943392,22.6674915 C9.82460435,22.6674915 9.7204566,22.5948393 9.69108159,22.4871136 C8.49738816,18.1755803 9.90738846,15.9935086 10.1397181,15.8557199 C10.2598885,15.7855729 10.4174454,15.8181412 10.4948886,15.9308774 C10.556309,16.0210663 10.5456272,16.1363078 10.4761954,16.2139705 C10.409434,16.3041594 9.03147918,18.1856013 10.1904567,22.3668616 C10.2251726,22.4946293 10.145059,22.6274075 10.0061953,22.6599757 C9.9821612,22.6649862 9.96079756,22.6674915 9.93943392,22.6674915 Z" id="路径"></path>
                            <path d="M8.90596779,19.4883307 C8.8044905,19.4883307 8.70568366,19.43071 8.66562683,19.3355105 C6.92716056,15.2243972 5.10323972,15.0339983 4.90295558,15.0264825 C4.7827851,15.021472 4.67329644,14.9387988 4.6519328,14.8260626 L4.90562604,14.7834734 L4.92164877,14.5429695 C5.30886476,14.558001 7.32505837,14.8536204 9.1436383,19.1576379 C9.1970474,19.2803951 9.13028602,19.420689 8.99943372,19.470794 C8.97005871,19.480815 8.93801325,19.4883307 8.90596779,19.4883307 Z" id="路径"></path>
                            <path d="M6.90579691,14.0870142 C6.79096734,14.0870142 6.6868196,14.0168672 6.65744459,13.9066363 C5.68806938,10.4644244 6.27556951,8.90114912 6.51324001,8.81096016 C6.64676277,8.76085518 6.7936378,8.82098116 6.8470469,8.9462436 C6.87642191,9.01639057 6.86841054,9.09154803 6.83369463,9.151674 C6.79630825,9.22933672 6.23818314,10.5270556 7.15414924,13.7838791 C7.19153561,13.9116468 7.1087515,14.044425 6.97255829,14.0794985 C6.95119465,14.084509 6.92983101,14.0870142 6.90579691,14.0870142 Z" id="路径"></path>
                        </g>
                    </g>
                    <g id="编组" transform="translate(58.837515, 40.209424)" fill-rule="nonzero">
                        <path d="M12.0725795,3.5190273 C12.7919981,2.73207183 16.0241307,-0.00247470274 17.4629679,0.128684543 C17.2949285,0.89336769 14.8399781,3.58831898 13.8658748,4.70193521 C12.6370868,5.97640712 11.2953974,8.38181819 10.7728999,9.97800146 C10.3449246,11.2598975 10.4394467,11.8043321 9.86706259,12.9847653 C9.43121044,13.7915184 7.17580683,16.5607108 6.33823552,17.5728642 C4.77599437,19.4115683 3.06146753,20.0772634 1.40995546,24.6628875 C2.51271392,18.6716322 3.40017192,12.8387578 4.6105806,11.1064659 C5.93389076,9.22074242 6.69794483,8.68620663 8.47286083,7.07517514 C10.3029147,5.51858712 9.75678675,5.85514669 12.0725795,3.5190273 Z" id="路径" fill="#6098EA"></path>
                        <g transform="translate(0.000000, 2.969643)" fill="#4684CE" id="路径">
                            <path d="M0.475236384,25.5216094 C0.459482691,25.5216094 0.441103384,25.5191347 0.425349691,25.51666 C0.288817692,25.4894383 0.199546769,25.3657031 0.228428538,25.2345439 C1.44933969,19.5600505 4.10646245,13.0416835 7.16267875,8.22838662 C9.47322029,4.39754677 12.027944,1.64567732 12.9889193,0.611251578 C13.1359537,0.452870602 13.277737,0.301913735 13.3276237,0.240046166 C13.3748847,0.128684543 13.5061655,0.0643422713 13.6295694,0.096513407 C13.7135891,0.118785732 13.7818551,0.1806533 13.8054857,0.259843788 C13.8501211,0.403376547 13.8422443,0.413275358 13.3696335,0.925538826 C12.4165351,1.95006576 9.88806752,4.67471348 7.59853091,8.46843279 C4.56857076,13.2446091 1.93507853,19.7035832 0.724669844,25.3310573 C0.698413691,25.4424189 0.593389076,25.5216094 0.475236384,25.5216094 Z"></path>
                            <path d="M4.08808314,14.7220066 C4.05132453,14.7220066 4.01456591,14.7145825 3.9778073,14.6972596 C3.85177776,14.6403414 3.79926545,14.4968087 3.85965461,14.3780229 C5.27748691,11.6187294 7.22831914,11.3514615 7.60640775,11.3242398 L7.63266391,11.5618112 L7.88472298,11.5692353 C7.87947175,11.6904958 7.77182152,11.7894839 7.64316637,11.7993827 C7.44099398,11.8117562 5.63982183,12.0072577 4.31651168,14.585898 C4.27187622,14.6725126 4.1826053,14.7220066 4.08808314,14.7220066 Z"></path>
                            <path d="M5.11207314,12.5987117 C5.08056576,12.5987117 5.04643276,12.5937623 5.01492537,12.5813887 C4.88627022,12.5318947 4.82588107,12.3908366 4.87839337,12.2695762 C6.12818629,9.41871864 5.38513714,8.36202057 5.3273736,8.28530478 C5.25385637,8.21848781 5.22760022,8.11207559 5.26961006,8.01803689 C5.32474799,7.89677645 5.47440806,7.84233299 5.6004376,7.89182705 C5.61619129,7.89677645 6.89486598,8.91140458 5.3431273,12.4502295 C5.30636868,12.5442682 5.21184653,12.5987117 5.11207314,12.5987117 Z"></path>
                            <path d="M7.1022896,9.04751323 C7.04977729,9.04751323 6.99463937,9.03266501 6.95000391,8.99801917 C6.83972806,8.91882869 6.81609752,8.76787182 6.90011721,8.6639343 C8.36783621,6.84007838 9.56774244,6.56291167 9.90119559,6.52331643 L9.94845667,6.75841319 L10.1952645,6.80543254 C10.1742596,6.90689536 10.0744862,6.98361114 9.96683598,6.99845936 C9.76466359,7.02320638 8.68553567,7.23603082 7.30183637,8.95594923 C7.25457529,9.01534209 7.17843245,9.04751323 7.1022896,9.04751323 Z"></path>
                        </g>
                    </g>
                    <rect id="矩形" fill="#C3CFDA" x="88.9945829" y="26.1361257" width="36.6910995" height="5.02617801" rx="2.51308901"></rect>
                    <rect id="矩形备份-62" fill="#C3CFDA" x="111.612384" y="46.7434555" width="36.6910995" height="5.02617801" rx="2.51308901"></rect>
                    <rect id="矩形备份-61" fill="#C3CFDA" x="88.9945829" y="35.6858639" width="59.3089005" height="5.02617801" rx="2.51308901"></rect>
                </g>
                <g id="编组" transform="translate(496.837696, 23.120419) scale(-1, 1) translate(-496.837696, -23.120419) translate(475.979058, 11.057592)" fill="#4EB7E7" fill-rule="nonzero">
                    <g>
                        <path d="M33.02536,18.0893172 L31.7321244,18.0893172 C31.643782,18.0893172 31.5726172,18.017925 31.5726172,17.9293001 C31.5726172,17.8406753 31.643782,17.769283 31.7321244,17.769283 L33.02536,17.769283 C33.1137025,17.769283 33.1848673,17.8406753 33.1848673,17.9293001 C33.1873212,18.0154632 33.1137025,18.0893172 33.02536,18.0893172 Z M30.4609744,18.0893172 L29.1898245,18.0893172 C29.101482,18.0893172 29.0303172,18.017925 29.0303172,17.9293001 C29.0303172,17.8406753 29.101482,17.769283 29.1898245,17.769283 L30.4609744,17.769283 C30.5493169,17.769283 30.6204817,17.8406753 30.6204817,17.9293001 C30.6229356,18.0154632 30.5493169,18.0893172 30.4609744,18.0893172 Z M27.9162205,18.0893172 L26.6450705,18.0893172 C26.5567281,18.0893172 26.4855633,18.017925 26.4855633,17.9293001 C26.4855633,17.8406753 26.5567281,17.769283 26.6450705,17.769283 L27.9162205,17.769283 C28.004563,17.769283 28.0757277,17.8406753 28.0757277,17.9293001 C28.0781817,18.0154632 28.0070169,18.0893172 27.9162205,18.0893172 Z M25.3739205,18.0893172 L24.1027706,18.0893172 C24.0144281,18.0893172 23.9432633,18.017925 23.9432633,17.9293001 C23.9432633,17.8406753 24.0144281,17.769283 24.1027706,17.769283 L25.3739205,17.769283 C25.462263,17.769283 25.5334278,17.8406753 25.5334278,17.9293001 C25.5334278,18.0154632 25.462263,18.0893172 25.3739205,18.0893172 Z M22.8291666,18.0893172 L21.5580166,18.0893172 C21.4696742,18.0893172 21.3985094,18.017925 21.3985094,17.9293001 C21.3985094,17.8406753 21.4696742,17.769283 21.5580166,17.769283 L22.8291666,17.769283 C22.9175091,17.769283 22.9886739,17.8406753 22.9886739,17.9293001 C22.9886739,18.0154632 22.9175091,18.0893172 22.8291666,18.0893172 Z M20.2844127,18.0893172 L19.0132627,18.0893172 C18.9249202,18.0893172 18.8537555,18.017925 18.8537555,17.9293001 C18.8537555,17.8406753 18.9249202,17.769283 19.0132627,17.769283 L20.2844127,17.769283 C20.3727552,17.769283 20.4439199,17.8406753 20.4439199,17.9293001 C20.4439199,18.0154632 20.3727552,18.0893172 20.2844127,18.0893172 Z M17.7396588,18.0893172 L16.4685088,18.0893172 C16.3801663,18.0893172 16.3090015,18.017925 16.3090015,17.9293001 C16.3090015,17.8406753 16.3801663,17.769283 16.4685088,17.769283 L17.7396588,17.769283 C17.8280012,17.769283 17.899166,17.8406753 17.899166,17.9293001 C17.90162,18.0154632 17.8280012,18.0893172 17.7396588,18.0893172 Z M15.1949048,18.0893172 L13.9237549,18.0893172 C13.8354124,18.0893172 13.7642476,18.017925 13.7642476,17.9293001 C13.7642476,17.8406753 13.8354124,17.769283 13.9237549,17.769283 L15.1949048,17.769283 C15.2832473,17.769283 15.3544121,17.8406753 15.3544121,17.9293001 C15.356866,18.0154632 15.2857013,18.0893172 15.1949048,18.0893172 Z M12.6526049,18.0893172 L11.950773,18.0893172 C11.7544564,18.0893172 11.5581398,18.07947 11.3642772,18.0573138 C11.2759347,18.0474666 11.2121318,17.968689 11.2219476,17.8800641 C11.2317635,17.7914393 11.3102901,17.7274324 11.3986326,17.7372796 C11.5802254,17.756974 11.7667262,17.7668212 11.9483191,17.7668212 L12.6501509,17.7668212 C12.7384934,17.7668212 12.8096581,17.8382135 12.8096581,17.9268383 C12.8121121,18.0154632 12.7409473,18.0893172 12.6526049,18.0893172 Z M34.2842402,17.9243765 C34.2130755,17.9243765 34.1468186,17.8751405 34.1296409,17.8037483 C34.1075553,17.7175852 34.1590884,17.6289604 34.2449769,17.6068041 C34.642518,17.5034085 35.0253354,17.348315 35.3836132,17.1489091 C35.4621398,17.1045966 35.5602981,17.1341383 35.6020154,17.2104541 C35.6461866,17.2892318 35.6167391,17.385242 35.5406665,17.4295544 C35.1578491,17.6437312 34.7480382,17.8086719 34.3259575,17.9169911 C34.3112338,17.9219147 34.29651,17.9243765 34.2842402,17.9243765 Z M10.1471143,17.756974 C10.1274826,17.756974 10.1078509,17.7545122 10.0906732,17.7471268 C9.68331629,17.5920333 9.29313705,17.3827802 8.93485925,17.1292147 C8.86369449,17.0775168 8.84406283,16.976583 8.89559593,16.9051907 C8.94712904,16.8313367 9.0477413,16.8141041 9.11890607,16.8658019 C9.45509824,17.1045966 9.81828395,17.299079 10.2035553,17.446787 C10.2869898,17.4787905 10.3287071,17.5723389 10.2968057,17.6560402 C10.2722661,17.7175852 10.2133711,17.756974 10.1471143,17.756974 Z M36.4829861,16.6983994 C36.4412689,16.6983994 36.3970976,16.6811668 36.3651962,16.6491634 C36.3038472,16.5851565 36.3063012,16.4817609 36.3701041,16.4202158 C36.6694869,16.1371087 36.9320604,15.8170745 37.1504626,15.4674987 C37.1970878,15.3911828 37.2977,15.3690266 37.3713188,15.4158008 C37.4473914,15.4625751 37.4694771,15.5635089 37.4203979,15.637363 C37.1872719,16.009095 36.9075208,16.3488236 36.5909603,16.6516252 C36.5639667,16.6836286 36.5222495,16.6983994 36.4829861,16.6983994 Z M8.09315183,16.2971258 C8.04652664,16.2971258 8.0023554,16.2774313 7.97045396,16.2405043 C7.68579489,15.9056993 7.44530705,15.5364291 7.25389837,15.1425409 C7.21463505,15.0613014 7.24899045,14.9652912 7.32751709,14.9259023 C7.40849769,14.8865135 7.50420203,14.9209787 7.54346535,14.9997564 C7.72260425,15.3690266 7.94836834,15.7161406 8.21584971,16.0312512 C8.27229073,16.1001816 8.26492886,16.2011155 8.198672,16.2577369 C8.16677056,16.2848168 8.12996119,16.2971258 8.09315183,16.2971258 Z M37.8253009,14.5615557 C37.8081232,14.5615557 37.7933994,14.5590939 37.7762217,14.5541703 C37.6927872,14.5270905 37.646162,14.4360038 37.6731555,14.3523026 C37.7983074,13.9608762 37.8719261,13.5546789 37.8964657,13.1410963 C37.9013736,13.0524714 37.9799002,12.9860028 38.0657887,12.9884646 C38.1541312,12.9933882 38.222842,13.069704 38.2179341,13.1583289 C38.1933945,13.5989913 38.1124139,14.0322684 37.9799002,14.4483129 C37.9553606,14.5172433 37.8915577,14.5615557 37.8253009,14.5615557 Z M6.99132492,14.0273448 C6.91770619,14.0273448 6.84899538,13.975647 6.83427164,13.8993311 C6.76556083,13.5571407 6.73120542,13.2051031 6.73120542,12.8530655 L6.73120542,12.5994999 C6.73120542,12.5108751 6.80237019,12.4394829 6.89071266,12.4394829 C6.97905513,12.4394829 7.0502199,12.5108751 7.0502199,12.5994999 L7.0502199,12.8530655 C7.0502199,13.1829469 7.08212134,13.5152901 7.1483782,13.8353243 C7.1655559,13.9214873 7.10911488,14.0076504 7.02322636,14.024883 C7.01341053,14.0273448 7.00114075,14.0273448 6.99132492,14.0273448 Z M38.0633348,12.0332856 C37.9749923,12.0332856 37.9038275,11.9618934 37.9038275,11.8732685 L37.9038275,10.5980553 C37.9038275,10.5094305 37.9749923,10.4380383 38.0633348,10.4380383 C38.1516772,10.4380383 38.222842,10.5094305 38.222842,10.5980553 L38.222842,11.8732685 C38.225296,11.9618934 38.1541312,12.0332856 38.0633348,12.0332856 Z M38.0633348,9.48285928 C37.9749923,9.48285928 37.9038275,9.41146704 37.9038275,9.32284218 L37.9038275,8.04762902 C37.9038275,7.95900417 37.9749923,7.88761192 38.0633348,7.88761192 C38.1516772,7.88761192 38.222842,7.95900417 38.222842,8.04762902 L38.222842,9.32284218 C38.225296,9.40900524 38.1541312,9.48285928 38.0633348,9.48285928 Z M38.0633348,6.92997115 C37.9749923,6.92997115 37.9038275,6.85857891 37.9038275,6.76995405 L37.9038275,5.49474089 C37.9038275,5.40611604 37.9749923,5.3347238 38.0633348,5.3347238 C38.1516772,5.3347238 38.222842,5.40611604 38.222842,5.49474089 L38.222842,6.76995405 C38.225296,6.85611711 38.1541312,6.92997115 38.0633348,6.92997115 Z M6.89071266,6.37852762 C6.80237019,6.37852762 6.73120542,6.30713538 6.73120542,6.21851052 L6.73120542,5.24856074 C6.73120542,5.14270328 6.73365938,5.03684582 6.74102125,4.93098835 C6.74592917,4.8423635 6.82200185,4.77343306 6.91034432,4.77835666 C6.99868679,4.78328026 7.0673976,4.85959611 7.06248968,4.94822096 C7.05758177,5.04669302 7.05267385,5.14516508 7.05267385,5.24609894 L7.05267385,6.21604872 C7.0502199,6.30467358 6.97905513,6.37852762 6.89071266,6.37852762 Z M37.9602686,4.38446843 C37.8866498,4.38446843 37.817939,4.3327706 37.8032153,4.25645475 C37.7197807,3.85271931 37.587267,3.46129287 37.4056742,3.09202265 C37.3664108,3.013245 37.4007662,2.91477295 37.4792929,2.87538412 C37.5602735,2.8359953 37.6559778,2.87046052 37.6952411,2.94923817 C37.8866498,3.3431264 38.0289794,3.76163265 38.1173218,4.19244791 C38.1344995,4.27861096 38.0780585,4.36477401 37.99217,4.38200662 C37.9823542,4.38446843 37.9725383,4.38446843 37.9602686,4.38446843 Z M7.13365445,3.85025751 C7.11647675,3.85025751 7.101753,3.8477957 7.0845753,3.8428721 C7.00114075,3.81579229 6.95451555,3.72470563 6.98150909,3.64100438 C7.11647675,3.22249813 7.30297752,2.82368629 7.53610348,2.45195427 C7.58272867,2.37563842 7.68334093,2.35348221 7.75695966,2.40271824 C7.83303234,2.44949247 7.85511796,2.55042633 7.80603881,2.62428037 C7.58518263,2.97385618 7.41095165,3.34805001 7.28579982,3.73947644 C7.2637142,3.80840688 7.20236526,3.85025751 7.13365445,3.85025751 Z M36.8559877,2.11714927 C36.8118164,2.11714927 36.7651913,2.09745486 36.7332898,2.06052783 C36.4658084,1.74787905 36.1615177,1.46723368 35.8253255,1.23090074 C35.7517068,1.17920291 35.7345291,1.07826905 35.7860622,1.0068768 C35.8375953,0.93548456 35.9382076,0.915790149 36.0093723,0.967487979 C36.3676501,1.22105353 36.6915725,1.51893151 36.9762316,1.85127471 C37.0326726,1.91774335 37.0253107,2.02113901 36.9590539,2.07776044 C36.9296064,2.10484026 36.892797,2.11714927 36.8559877,2.11714927 Z M8.47842316,1.71587563 C8.43670588,1.71587563 8.39253465,1.69864302 8.3606332,1.6641778 C8.29928426,1.60017096 8.30173822,1.4967753 8.36799507,1.43523026 C8.68700955,1.13489048 9.04283338,0.873939523 9.42565075,0.659762795 C9.50417739,0.61791217 9.59988174,0.644991986 9.64405297,0.723769634 C9.68822421,0.802547281 9.65877672,0.898557538 9.58025008,0.942869965 C9.22197228,1.14227588 8.88823406,1.38599423 8.58885125,1.6691014 C8.5569498,1.70110482 8.51768648,1.71587563 8.47842316,1.71587563 Z M34.7971173,0.662224597 C34.7774857,0.662224597 34.757854,0.659762795 34.7406763,0.652377391 C34.3578589,0.507131104 33.9554099,0.408659045 33.545599,0.364346618 C33.4572565,0.354499412 33.3934536,0.275721765 33.4032695,0.187096912 C33.4130853,0.098472059 33.4916119,0.0344652206 33.5799544,0.0443124265 C34.0167589,0.093548456 34.4437475,0.194482316 34.8535584,0.352037611 C34.9369929,0.38404103 34.9787102,0.477589486 34.9468087,0.558828935 C34.9247231,0.622835773 34.8633742,0.662224597 34.7971173,0.662224597 Z M10.679623,0.494822096 C10.6084583,0.494822096 10.5422014,0.445586067 10.5250237,0.374193824 C10.5029381,0.288030773 10.5544712,0.199405919 10.6403597,0.177249706 C11.0624404,0.0689304413 11.4992448,0.0123090074 11.9385032,0.0123090074 C11.9385032,0.0123090074 11.9385032,0.0123090074 11.9385032,0.0123090074 C12.0268457,0.0123090074 12.0980105,0.0837012501 12.0980105,0.172326103 C12.0980105,0.260950956 12.0268457,0.334805001 11.9385032,0.334805001 C11.5262384,0.334805001 11.1164275,0.388964633 10.7213403,0.489898493 C10.7066166,0.492360295 10.6943468,0.494822096 10.679623,0.494822096 Z M32.2940807,0.334805001 L31.0229307,0.334805001 C30.9345882,0.334805001 30.8634235,0.263412758 30.8634235,0.174787905 C30.8634235,0.0861630516 30.9345882,0.0147708088 31.0229307,0.0147708088 L32.2940807,0.0147708088 C32.3824232,0.0147708088 32.4535879,0.0861630516 32.4535879,0.174787905 C32.4535879,0.260950956 32.3824232,0.334805001 32.2940807,0.334805001 Z M29.7493268,0.334805001 L28.4781768,0.334805001 C28.3898343,0.334805001 28.3186695,0.263412758 28.3186695,0.174787905 C28.3186695,0.0861630516 28.3898343,0.0147708088 28.4781768,0.0147708088 L29.7493268,0.0147708088 C29.8376692,0.0147708088 29.908834,0.0861630516 29.908834,0.174787905 C29.908834,0.260950956 29.8376692,0.334805001 29.7493268,0.334805001 Z M27.2045728,0.334805001 L25.9334229,0.334805001 C25.8450804,0.334805001 25.7739156,0.263412758 25.7739156,0.174787905 C25.7739156,0.0861630516 25.8450804,0.0147708088 25.9334229,0.0147708088 L27.2045728,0.0147708088 C27.2929153,0.0147708088 27.3640801,0.0861630516 27.3640801,0.174787905 C27.366534,0.260950956 27.2929153,0.334805001 27.2045728,0.334805001 Z M24.6598189,0.334805001 L23.3886689,0.334805001 C23.3003265,0.334805001 23.2291617,0.263412758 23.2291617,0.174787905 C23.2291617,0.0861630516 23.3003265,0.0147708088 23.3886689,0.0147708088 L24.6598189,0.0147708088 C24.7481614,0.0147708088 24.8193261,0.0861630516 24.8193261,0.174787905 C24.8217801,0.260950956 24.7481614,0.334805001 24.6598189,0.334805001 Z M22.115065,0.334805001 L20.843915,0.334805001 C20.7555725,0.334805001 20.6844078,0.263412758 20.6844078,0.174787905 C20.6844078,0.0861630516 20.7555725,0.0147708088 20.843915,0.0147708088 L22.115065,0.0147708088 C22.2034075,0.0147708088 22.2745722,0.0861630516 22.2745722,0.174787905 C22.2770262,0.260950956 22.2058614,0.334805001 22.115065,0.334805001 Z M19.572765,0.334805001 L18.301615,0.334805001 C18.2132726,0.334805001 18.1421078,0.263412758 18.1421078,0.174787905 C18.1421078,0.0861630516 18.2132726,0.0147708088 18.301615,0.0147708088 L19.572765,0.0147708088 C19.6611075,0.0147708088 19.7322723,0.0861630516 19.7322723,0.174787905 C19.7322723,0.260950956 19.6611075,0.334805001 19.572765,0.334805001 Z M17.0280111,0.334805001 L15.7568611,0.334805001 C15.6685186,0.334805001 15.5973539,0.263412758 15.5973539,0.174787905 C15.5973539,0.0861630516 15.6685186,0.0147708088 15.7568611,0.0147708088 L17.0280111,0.0147708088 C17.1163536,0.0147708088 17.1875183,0.0861630516 17.1875183,0.174787905 C17.1875183,0.260950956 17.1163536,0.334805001 17.0280111,0.334805001 Z M14.4832572,0.334805001 L13.2121072,0.334805001 C13.1237647,0.334805001 13.0525999,0.263412758 13.0525999,0.174787905 C13.0525999,0.0861630516 13.1237647,0.0147708088 13.2121072,0.0147708088 L14.4832572,0.0147708088 C14.5715996,0.0147708088 14.6427644,0.0861630516 14.6427644,0.174787905 C14.6452184,0.260950956 14.5715996,0.334805001 14.4832572,0.334805001 Z" id="形状"></path>
                        <g transform="translate(0.000000, 6.646864)">
                            <path d="M5.84778072,1.04626563 C5.81587927,1.04626563 5.78397783,1.03641842 5.75453034,1.01918581 C5.67354974,0.967487979 5.64655621,0.859168715 5.69808931,0.775467464 L6.07109085,0.177249706 C6.12262396,0.093548456 6.23059809,0.0689304413 6.31403265,0.120628272 C6.39501324,0.172326103 6.42200678,0.280645368 6.37047367,0.364346618 L5.99747213,0.962564377 C5.96311672,1.01918581 5.9066757,1.04626563 5.84778072,1.04626563 Z" id="路径"></path>
                            <path d="M1.72513212,7.64881718 C1.69323067,7.64881718 1.66132923,7.63896998 1.63188174,7.62173737 C1.55090114,7.57003953 1.52390761,7.46172027 1.57544071,7.37801902 L2.26254881,6.27759376 C2.31408192,6.19389251 2.42205605,6.1692745 2.50549061,6.22097233 C2.5864712,6.27267016 2.61346474,6.38098942 2.56193163,6.46469067 L1.87482353,7.56511593 C1.84292208,7.61927556 1.7840271,7.64881718 1.72513212,7.64881718 Z M3.09934832,5.44796666 C3.06744687,5.44796666 3.03554543,5.43811946 3.00609794,5.42088685 C2.92511734,5.36918902 2.89812381,5.26086975 2.94965691,5.1771685 L3.63676501,4.07674324 C3.68829812,3.99550379 3.79627225,3.96842398 3.87970681,4.02012181 C3.9606874,4.07181964 3.98768094,4.1801389 3.93614783,4.26384015 L3.24903973,5.36426541 C3.21468432,5.41842505 3.1582433,5.44796666 3.09934832,5.44796666 Z M4.47356452,3.24711614 C4.44166307,3.24711614 4.40976163,3.23726894 4.38031414,3.22003633 C4.29933354,3.1683385 4.27234001,3.06001923 4.32387311,2.97631798 L5.01098121,1.87589272 C5.06251432,1.79465327 5.17048845,1.76757346 5.25392301,1.81927129 C5.3349036,1.87096912 5.36189714,1.97928839 5.31036403,2.06298964 L4.62325593,3.16341489 C4.58890052,3.21757453 4.5324595,3.24711614 4.47356452,3.24711614 Z" id="形状"></path>
                            <path d="M0.0858885125,9.76842825 L0.890786572,8.47844428 C0.94231968,8.39720483 1.05029381,8.37012501 1.13372836,8.42182284 C1.19753126,8.46121167 1.22697875,8.53752751 1.212255,8.60891976 C1.28096581,8.59168715 1.3570385,8.61876696 1.39875577,8.6827738 C1.45274284,8.76401325 1.43065722,8.87233251 1.34967662,8.92649215 L0.0858885125,9.76842825 Z" id="路径"></path>
                            <path d="M2.23064737,8.30611818 C2.17420634,8.30611818 2.11776532,8.27903836 2.08340992,8.22734053 C2.02942285,8.14610108 2.05150847,8.03778181 2.13248907,7.98362218 L3.11161811,7.33370659 C3.19259871,7.27954696 3.30057284,7.30170317 3.3545599,7.38294262 C3.40854697,7.46418207 3.38646135,7.57250134 3.30548075,7.62666097 L2.32635171,8.27657656 C2.29690422,8.29873277 2.26254881,8.30611818 2.23064737,8.30611818 Z M4.18645149,7.006287 C4.13001047,7.006287 4.07356945,6.97920718 4.03921404,6.92750935 C3.98522698,6.8462699 4.0073126,6.73795064 4.08829319,6.683791 L5.06742224,6.03387541 C5.14840283,5.97971578 5.25637696,6.00187199 5.31036403,6.08311144 C5.36435109,6.16435089 5.34226548,6.27267016 5.26128488,6.32682979 L4.28215584,6.97674538 C4.2551623,6.99643979 4.2208069,7.006287 4.18645149,7.006287 Z" id="形状"></path>
                            <path d="M6.14470958,5.70399402 C6.08826856,5.70399402 6.03182753,5.6769142 5.99747213,5.62521637 C5.94348506,5.54397692 5.96557068,5.43565766 6.04655128,5.38149802 L6.63304712,4.99253339 C6.71402772,4.93837376 6.82200185,4.96052997 6.87598891,5.04176942 C6.92997598,5.12300887 6.90789036,5.23132813 6.82690976,5.28548777 L6.24041392,5.6744524 C6.21096643,5.69414681 6.17661103,5.70399402 6.14470958,5.70399402 Z" id="路径"></path>
                        </g>
                    </g>
                    <path d="M36.5615128,2.8458425 L15.8918288,2.8458425 C13.1483043,2.8458425 10.9250188,5.07623464 10.9250188,7.82852869 L10.9250188,15.2927108 C10.9250188,18.0450048 13.1483043,20.2753969 15.8918288,20.2753969 L29.3370619,20.2753969 L27.135862,24.1256545 L33.5063357,20.2753969 L36.5615128,20.2753969 C39.3050373,20.2753969 41.5283228,18.0450048 41.5283228,15.2927108 L41.5283228,7.82852869 C41.5283228,5.07623464 39.3050373,2.8458425 36.5615128,2.8458425 Z" id="路径"></path>
                </g>
                <g id="编组" transform="translate(22.617801, 43.095673)" fill-rule="nonzero">
                    <path d="M30.6019159,32.1675393 L8.09965481,32.1675393 C3.62963065,32.1675393 0,28.5312719 0,24.0530743 L0,8.114465 C0,3.63626741 3.62963065,0 8.09965481,0 L30.6019159,0 C35.07194,0 38.7015707,3.63626741 38.7015707,8.114465 L38.7015707,24.0530743 C38.7015707,28.5312719 35.07194,32.1675393 30.6019159,32.1675393 Z" id="路径" fill="#77A0DB"></path>
                    <g transform="translate(0.000000, 2.010471)" fill="#FFFFFF" id="路径">
                        <path d="M37.1176731,1.71895288 L26.5750785,12.137103 C26.3959046,12.3186038 26.2023967,12.4855846 26.0160558,12.6453054 C24.138313,14.2425131 21.8305526,15.0193368 19.5156254,14.9902967 C17.207865,14.9612565 14.9144386,14.1263525 13.0796975,12.4855846 C12.8933566,12.3186038 12.7070157,12.144363 12.5278418,11.9628621 L11.8039791,11.2078185 L2.25042467,1.28335079 C2.62310646,0.804188482 3.05312391,0.375846422 3.51180919,-0.00167539267 L13.0940314,9.93005236 L13.8178941,10.685096 C13.9970681,10.8665969 14.183409,11.0408377 14.3769168,11.2005585 C17.3440372,13.7706108 21.7302152,13.8286911 24.7546713,11.3384991 C24.9553461,11.1787784 25.141687,11.0045375 25.3280279,10.8302967 L26.0733915,10.1042932 L35.8777894,0.397626527 C36.3436417,0.796928447 36.7449913,1.23253054 37.1176731,1.71895288 Z"></path>
                        <path d="M13.8178941,10.692356 C13.9970681,10.8738569 14.183409,11.0480977 14.3769168,11.2078185 L13.0796975,12.4928447 L0.666527051,24.7623037 C0.451518325,24.0653403 0.322513089,23.3393368 0.301012216,22.5842932 L11.8039791,11.2078185 L13.0940314,9.93005236 L13.8178941,10.692356 Z"></path>
                        <path d="M38.5510646,23.0634555 C38.5080628,23.8184991 38.3647237,24.5445026 38.1282141,25.2269459 L26.0160558,12.6525654 L24.7546713,11.3457592 C24.9553461,11.1860384 25.141687,11.0117976 25.3280279,10.8375567 L26.0733915,10.1115532 L27.3204421,11.4110995 L38.5510646,23.0634555 Z"></path>
                    </g>
                </g>
            </g>
        </g>
    </g>
</svg>