<?xml version="1.0" encoding="UTF-8"?>
<svg width="16px" height="16px" viewBox="0 0 16 16" version="1.1" xmlns="http://www.w3.org/2000/svg" xmlns:xlink="http://www.w3.org/1999/xlink">
    <!-- Generator: Sketch 63 (92445) - https://sketch.com -->
    <title>复制流程</title>
    <desc>Created with Sketch.</desc>
    <g id="复制流程" stroke="none" stroke-width="1" fill="none" fill-rule="evenodd">
        <g id="编组">
            <rect id="矩形备份" x="0" y="0" width="16" height="16"></rect>
            <g id="复制" transform="translate(2.000000, 1.000000)" fill="#000000" fill-rule="nonzero">
                <path d="M7.8096424,4 L3.19657939,4 C3.0851844,4 3,4.08724832 3,4.20134228 L3,4.60402685 C3,4.71812081 3.0851844,4.80536913 3.19657939,4.80536913 L7.80308975,4.80536913 C7.91448474,4.80536913 7.99966914,4.71812081 7.99966914,4.60402685 L7.99966914,4.20134228 C8.00622179,4.08724832 7.91448474,4 7.8096424,4 Z M6.69569252,7.19463087 L3.19657939,7.19463087 C3.0851844,7.19463087 3,7.28187919 3,7.39597315 L3,7.79865772 C3,7.91275168 3.0851844,8 3.19657939,8 L6.68913988,8 C6.80053487,8 6.88571927,7.91275168 6.88571927,7.79865772 L6.88571927,7.39597315 C6.89227191,7.2885906 6.80053487,7.19463087 6.69569252,7.19463087 L6.69569252,7.19463087 Z" id="形状"></path>
                <path d="M11.2530795,2.33212996 L10.212206,2.33212996 L10.212206,1.73285199 C10.212206,0.779783394 9.42609183,0 8.46528555,0 L1.74692049,0 C0.786114222,0 0,0.779783394 0,1.73285199 L0,9.93501805 C0,10.8880866 0.786114222,11.66787 1.74692049,11.66787 L2.78779395,11.66787 L2.78779395,12.267148 C2.78779395,13.2202166 3.57390817,14 4.53471445,14 L11.2530795,14 C12.2138858,14 13,13.2202166 13,12.267148 L13,4.06498195 C13,3.11191336 12.2211646,2.33212996 11.2530795,2.33212996 Z M0.873460246,9.94223827 L0.873460246,1.73285199 C0.873460246,1.25631769 1.26651736,0.866425993 1.74692049,0.866425993 L8.46528555,0.866425993 C8.94568869,0.866425993 9.3387458,1.25631769 9.3387458,1.73285199 L9.3387458,9.93501805 C9.3387458,10.4115523 8.94568869,10.8015427 8.46528555,10.8015427 L1.74692049,10.8015427 C1.26651736,10.8086643 0.873460246,10.4187726 0.873460246,9.94223827 L0.873460246,9.94223827 Z M12.1265398,12.2743682 C12.1265398,12.7509025 11.7334826,13.1407942 11.2530795,13.1407942 L4.53471445,13.1407942 C4.05431131,13.1407942 3.6612542,12.7509025 3.6612542,12.2743682 L3.6612542,11.6750903 L8.47256439,11.6750903 C9.43337066,11.6750903 10.2194849,10.8953069 10.2194849,9.94223827 L10.2194849,3.19855596 L11.2603583,3.19855596 C11.7407615,3.19855596 12.1338186,3.58844765 12.1338186,4.06498195 L12.1338186,12.2743682 L12.1265398,12.2743682 Z" id="形状"></path>
            </g>
        </g>
    </g>
</svg>