<?xml version="1.0" encoding="UTF-8"?>
<svg width="16px" height="16px" viewBox="0 0 16 16" version="1.1" xmlns="http://www.w3.org/2000/svg" xmlns:xlink="http://www.w3.org/1999/xlink">
    <!-- Generator: Sketch 63 (92445) - https://sketch.com -->
    <title>删除</title>
    <desc>Created with Sketch.</desc>
    <g id="删除" stroke="none" stroke-width="1" fill="none" fill-rule="evenodd">
        <g id="编组">
            <rect id="矩形备份-2" x="0" y="0" width="16" height="16"></rect>
            <g id="回收站(1)" transform="translate(1.000000, 1.000000)" fill="#000000" fill-rule="nonzero">
                <path d="M10.199095,2.16309013 L10.199095,1.56223176 C10.199095,0.721030043 9.43891403,0 8.5520362,0 L5.70135747,0 C4.81447963,0 4.05429863,0.721030043 4.05429863,1.56223176 L4.05429863,2.16309013 L0.506787326,2.16309013 C0.190045249,2.16309013 0,2.34334764 0,2.52360515 C0,2.70386266 0.190045249,2.88412017 0.506787326,2.88412017 L13.4932127,2.88412017 C13.7466063,2.88412017 14,2.70386266 14,2.52360515 C13.9366516,2.34334764 13.7466063,2.16309013 13.4298643,2.16309013 L10.199095,2.16309013 Z M4.81447963,1.56223176 C4.81447963,1.08154506 5.19457013,0.721030043 5.70135747,0.721030043 L8.5520362,0.721030043 C9.05882353,0.721030043 9.43891403,1.08154506 9.43891403,1.56223176 L9.43891403,2.16309013 L4.81447963,2.16309013 L4.81447963,1.56223176 Z M11.0859728,12.4978541 C11.0859728,12.9184549 10.6425339,13.27897 10.199095,13.27897 L3.73755656,13.27897 C3.29411764,13.27897 2.91402714,12.9184549 2.85067873,12.4978541 L2.28054299,4.5665236 L1.52036199,4.5665236 L2.09049774,12.5579399 C2.15384616,13.3991416 2.85067873,14 3.73755656,14 L10.2624434,14 C11.1493213,14 11.8461539,13.3390558 11.9095023,12.5579399 L12.4162896,4.5665236 L11.6561086,4.5665236 L11.0859728,12.4978541 L11.0859728,12.4978541 Z" id="形状"></path>
                <path d="M5.8,10.6170213 L5.8,5.38297872 C5.8,5.19148936 5.6,5 5.4,5 C5.2,5 5,5.19148936 5,5.38297872 L5,10.6170213 C5,10.8085106 5.2,11 5.4,11 C5.6,11 5.8,10.8085106 5.8,10.6170213 Z M9,10.6170213 L9,5.38297872 C9,5.19148936 8.8,5 8.6,5 C8.4,5 8.2,5.19148936 8.2,5.38297872 L8.2,10.6170213 C8.2,10.8085106 8.4,11 8.6,11 C8.8,11 9,10.8085106 9,10.6170213 Z" id="形状"></path>
            </g>
        </g>
    </g>
</svg>