<?xml version="1.0" encoding="UTF-8"?>
<svg width="16px" height="16px" viewBox="0 0 16 16" version="1.1" xmlns="http://www.w3.org/2000/svg" xmlns:xlink="http://www.w3.org/1999/xlink">
    <!-- Generator: Sketch 63 (92445) - https://sketch.com -->
    <title>编辑流程</title>
    <desc>Created with Sketch.</desc>
    <g id="编辑流程" stroke="none" stroke-width="1" fill="none" fill-rule="evenodd">
        <g id="编组">
            <rect id="矩形" x="0" y="0" width="16" height="16"></rect>
            <g id="重命名／编辑／修改(1)" transform="translate(1.000000, 1.000000)" fill="#000000" fill-rule="nonzero">
                <path d="M13.9354067,0.667464115 L8.66746411,5.9354067 C8.58133971,6.0215311 8.44497608,6.0215311 8.36602871,5.9354067 L8.0645933,5.63397129 C7.9784689,5.54784689 7.9784689,5.41148325 8.0645933,5.33253589 L13.3325359,0.0645933014 C13.4186603,-0.0215311005 13.5550239,-0.0215311005 13.6339713,0.0645933014 L13.9354067,0.366028708 C14.0215311,0.444976077 14.0215311,0.581339713 13.9354067,0.667464115 Z" id="路径"></path>
                <path d="M13.7765957,7.17658109 L13.3297872,7.17658109 C13.2031915,7.17658109 13.106383,7.27426425 13.106383,7.40200376 L13.106383,11.1966187 C13.106383,11.6925485 12.7042553,12.0983093 12.212766,12.0983093 L1.78723404,12.0983093 C1.29574468,12.0983093 0.893617021,11.6925485 0.893617021,11.1966187 L0.893617021,2.80338134 C0.893617021,2.30745147 1.29574468,1.90169067 1.78723404,1.90169067 L7.10425532,1.90169067 C7.23085106,1.90169067 7.32765957,1.80400751 7.32765957,1.676268 L7.32765957,1.22542267 C7.32765957,1.09768316 7.23085106,1 7.10425532,1 L1.78723404,1 C0.804255319,1 0,1.8115216 0,2.80338134 L0,11.1966187 C0,12.1884784 0.804255319,13 1.78723404,13 L12.212766,13 C13.1957447,13 14,12.1884784 14,11.1966187 L14,7.40200376 C14,7.27426425 13.9031915,7.17658109 13.7765957,7.17658109 Z" id="路径"></path>
            </g>
        </g>
    </g>
</svg>