<svg width="16" height="16"
    xmlns="http://www.w3.org/2000/svg">
    <g fill="none" fill-rule="evenodd">
        <path d="M0 0h16v16H0z"/>
        <path d="M9.121 1.906l1.96 1.603a.947.947 0 0 1-.18.295l-.805.926a1.15 1.15 0 0 1-.108.109l-.046.04-.04.046-5.75 6.69-2.175.5.158-2.205L7.869 3.3l.043-.05.036-.057c.03-.048.064-.094.102-.138l.803-.926a.974.974 0 0 1 .268-.223M9.197 1c-.318 0-.717.208-1.03.57l-.802.925a1.993 1.993 0 0 0-.181.245L1.26 9.567 1 13.233l3.649-.839 5.941-6.912a2 2 0 0 0 .192-.193l.804-.925c.442-.51.547-1.134.23-1.391L9.537 1.11A.529.529 0 0 0 9.197 1zm5.58 14H1.345a.22.22 0 0 1-.224-.217v-.435c0-.057.024-.113.066-.153a.227.227 0 0 1 .158-.064h13.43a.22.22 0 0 1 .224.217v.435c0 .12-.1.217-.224.217z" fill="#000" fill-rule="nonzero"/>
    </g>
</svg>