<svg width="16" height="16" xmlns="http://www.w3.org/2000/svg"><g fill="none" fill-rule="evenodd"><path d="M0 0h16v16H0z"/><g fill="#000" fill-rule="nonzero"><path d="M0 .5v15a.5.5 0 0 0 .5.5h7.28a.62.62 0 1 0 0-1.239H1.2V1.24h13.6v5.49a.6.6 0 0 0 1.2 0V.5a.5.5 0 0 0-.5-.5H.5a.5.5 0 0 0-.5.5z"/><path d="M11.675 8.975a.613.613 0 0 0-.855-.106l-3.104 2.385a.5.5 0 0 0 0 .792l3.12 2.397c.259.2.63.158.839-.093a.563.563 0 0 0-.09-.807L9.9 12.25h5.5a.6.6 0 0 0 0-1.2H9.9l1.664-1.239a.588.588 0 0 0 .111-.836zM2.994 3.642l8.299-.084a.2.2 0 0 1 .202.197l.008.8a.2.2 0 0 1-.197.203l-8.3.084a.2.2 0 0 1-.202-.198l-.008-.8a.2.2 0 0 1 .198-.202zM3 6.6h4.55c.11 0 .2.09.2.2v.8a.2.2 0 0 1-.2.2H3a.2.2 0 0 1-.2-.2v-.8c0-.11.09-.2.2-.2z"/></g></g></svg>