<?xml version="1.0" encoding="UTF-8"?>
<svg width="16px" height="16px" viewBox="0 0 16 16" version="1.1" xmlns="http://www.w3.org/2000/svg" xmlns:xlink="http://www.w3.org/1999/xlink">
    <!-- Generator: Sketch 63 (92445) - https://sketch.com -->
    <title>查看流程</title>
    <desc>Created with Sketch.</desc>
    <g id="查看流程" stroke="none" stroke-width="1" fill="none" fill-rule="evenodd">
        <g id="编组">
            <rect id="矩形备份-3" x="0" y="0" width="16" height="16"></rect>
            <g id="预览" transform="translate(1.000000, 1.000000)" fill="#000000" fill-rule="nonzero">
                <path d="M7.90529091,10 C7.07818811,10 6.40529091,9.3280543 6.40529091,8.5 C6.40529091,7.6719457 7.07818811,7 7.90529091,7 C8.73239371,7 9.40529091,7.6719457 9.40529091,8.5 C9.40529091,9.3280543 8.73239371,10 7.90529091,10 Z M7.90529091,7.81447964 C7.54080493,7.81447964 7.2464124,8.1199095 7.2464124,8.5 C7.2464124,8.8800905 7.54080493,9.18552036 7.90529091,9.18552036 C8.26977689,9.18552036 8.56416941,8.8800905 8.56416941,8.5 C8.56416941,8.1199095 8.26977689,7.81447964 7.90529091,7.81447964 Z" id="形状"></path>
                <path d="M8,5.81632653 C9.69056604,5.81632653 11.7358491,7.51020408 12.8075472,8.58503401 C11.7584906,9.59863946 9.74339623,11.1836735 8,11.1836735 C6.23396226,11.1836735 4.22641509,9.59183673 3.18490566,8.57823129 C4.21886792,7.51020408 6.23396226,5.81632653 8,5.81632653 M8,5 C5.00377358,5 2,8.59183673 2,8.59183673 C2,8.59183673 5.00377358,12 8,12 C10.9735849,12 14,8.59183673 14,8.59183673 C14,8.59183673 10.8830189,5 8,5 Z" id="形状"></path>
                <path d="M3.536,12.1651376 L1.53226667,12.1651376 C1.144,12.1651376 0.832,11.8213708 0.832,11.4004317 L0.832,1.60658392 C0.832,1.1856449 1.144,0.841878036 1.53226667,0.841878036 L11.4677333,0.841878036 C11.648,0.841878036 11.8213333,0.919050189 11.9530667,1.05936319 C12.0917333,1.20669185 12.168,1.39611441 12.168,1.60658392 L12.168,4.39881274 L13,4.39881274 L13,1.60658392 C13,1.1856449 12.8405333,0.785752833 12.5562667,0.47706422 C12.2650667,0.168375607 11.8768,0 11.4677333,0 L1.53226667,0 C0.6864,0 0,0.722611981 0,1.60658392 L0,11.3934161 C0,12.277388 0.6864,13 1.53226667,13 L3.536,13 L3.536,12.1651376 Z" id="路径"></path>
            </g>
        </g>
    </g>
</svg>