<svg width="24" height="24" fill="currentColor"
    xmlns="http://www.w3.org/2000/svg">
    <g fill="none" fill-rule="evenodd">
        <path d="M0 0h24v24H0z"/>
        <g fill="currentColor" fill-rule="nonzero">
            <path d="M12.5 5c-3.415 0-6.49 2.197-9.2 6.52L3 12l.3.48C6.01 16.803 9.086 19 12.5 19c3.415 0 6.49-2.197 9.2-6.52L22 12l-.3-.48C18.99 7.197 15.914 5 12.5 5zm.35 1.175c2.782.138 5.343 1.93 7.702 5.429l.26.394-.26.398c-2.457 3.645-5.134 5.437-8.051 5.437l-.35-.008c-2.781-.138-5.343-1.93-7.701-5.429l-.263-.398.263-.394c2.457-3.645 5.133-5.437 8.05-5.437l.35.008z"/>
            <path d="M12.5 8a3.5 3.5 0 1 0 0 7 3.5 3.5 0 0 0 0-7zm0 1.167a2.333 2.333 0 1 1 0 4.666 2.333 2.333 0 0 1 0-4.666z"/>
        </g>
    </g>
</svg>