<?xml version="1.0" encoding="UTF-8"?>
<svg width="16px" height="16px" viewBox="0 0 16 16" version="1.1" xmlns="http://www.w3.org/2000/svg" xmlns:xlink="http://www.w3.org/1999/xlink">
    <!-- Generator: Sketch 63 (92445) - https://sketch.com -->
    <title>说明</title>
    <desc>Created with Sketch.</desc>
    <g id="说明" stroke="none" stroke-width="1" fill="none" fill-rule="evenodd">
        <g id="说明(1)" transform="translate(1.000000, 1.000000)" fill="#000000" fill-rule="nonzero">
            <path d="M7,0 C10.8661538,0 14,3.13384615 14,7 C14,10.8661538 10.8661538,14 7,14 C3.13384615,14 0,10.8661538 0,7 C0,3.13384615 3.13384615,0 7,0 Z M7,1.07692308 C3.72877494,1.07692308 1.07692308,3.72877494 1.07692308,7 C1.07692308,10.2712251 3.72877494,12.9230769 7,12.9230769 C10.2712251,12.9230769 12.9230769,10.2712251 12.9230769,7 C12.9230769,3.72877494 10.2712251,1.07692308 7,1.07692308 Z M6.93825642,8.56082052 C7.12779488,8.56082052 7.29148719,8.62112822 7.42071795,8.7417436 C7.54505074,8.8642481 7.6135819,9.03246095 7.61025642,9.20697437 C7.61446496,9.38589062 7.54242408,9.5581623 7.41210257,9.68082052 C7.28431201,9.80144561 7.11392137,9.86650385 6.93825642,9.8617436 C6.76151429,9.86341027 6.59124651,9.79530317 6.46441026,9.67220514 C6.33673572,9.55196481 6.26757372,9.38220355 6.2748718,9.20697437 C6.2748718,9.01743591 6.33517949,8.86235899 6.46441026,8.7417436 C6.59220082,8.62111852 6.76259146,8.55606027 6.93825642,8.56082052 L6.93825642,8.56082052 Z M7.09333334,3.5897436 C7.65333334,3.5897436 8.10994872,3.73620514 8.45456411,4.04635899 C8.79917949,4.34789745 8.97148719,4.76143591 8.97148719,5.28697437 C8.97148719,5.7177436 8.85948719,6.07097437 8.65271795,6.34666668 C8.57517949,6.43282052 8.32533334,6.66543591 7.91179488,7.02728206 C7.76819308,7.14532105 7.65081713,7.29204098 7.56717949,7.45805129 C7.48102565,7.63035899 7.43794872,7.81128206 7.43794872,8.01805129 L7.43794872,8.13866668 L6.44717949,8.13866668 L6.44717949,8.01805129 C6.44717949,7.69066668 6.4988718,7.40635899 6.61948719,7.1737436 C6.73148719,6.94112822 7.06748719,6.57928206 7.62748719,6.07958975 L7.7308718,5.95897437 C7.88594872,5.76943591 7.96348719,5.56266668 7.96348719,5.34728206 C7.96348719,5.06297437 7.87733334,4.83897437 7.72225642,4.67528206 C7.55856411,4.51158975 7.32594872,4.43405129 7.03302565,4.43405129 C6.65394872,4.43405129 6.3868718,4.54605129 6.22317949,4.78728206 C6.07671795,4.98543591 6.00779488,5.2697436 6.00779488,5.63158975 L5.02564103,5.63158975 C5.02564103,4.99405129 5.20656411,4.49435899 5.58564103,4.13251283 C5.95610257,3.77066668 6.45579488,3.5897436 7.09333334,3.5897436 Z" id="形状"></path>
        </g>
    </g>
</svg>