<?xml version="1.0" encoding="utf-8"?>
<!-- Generator: Adobe Illustrator 24.0.0, SVG Export Plug-In . SVG Version: 6.00 Build 0)  -->
<svg version="1.1" id="图层_1" xmlns="http://www.w3.org/2000/svg" xmlns:xlink="http://www.w3.org/1999/xlink" x="0px" y="0px"
	 viewBox="0 0 200 200" style="enable-background:new 0 0 200 200;" xml:space="preserve">
<style type="text/css">
	.st0{fill:#00C7FF;}
	.st1{fill:#FFFFFF;}
</style>
<path class="st0" d="M187,199.5H12.7c-6.9,0-12.5-5.6-12.5-12.5V12.8c0-6.9,5.6-12.5,12.5-12.5H187c6.9,0,12.5,5.6,12.5,12.5v174.3
	C199.5,193.9,193.9,199.5,187,199.5L187,199.5z"/>
<path class="st1" d="M59.8,134.7c-3.9-0.2-7.5-1.8-10.1-4.4c-3-3-4.4-6.6-4.4-11.1c0-4.2,1.6-8.3,4.4-11.1c3-3,6.6-4.4,11.1-4.4H70
	V93.5h-9.2c-6.9,0-13.4,2.7-18.2,7.5c-4.8,4.8-7.5,11.3-7.5,18.2c0,6.9,2.7,13.4,7.5,18.2c4.6,4.6,10.7,7.2,17.2,7.5v9.6L74.4,140
	l-14.5-15L59.8,134.7L59.8,134.7z M157.1,60.1c-4.9-4.8-11.3-7.4-18.2-7.4h-9.2v10.2h9.2c4.2,0,8.3,1.6,11.1,4.4
	c3,3,4.4,6.6,4.4,11.1c0,4.5-1.4,8.1-4.4,11.1c-2.8,2.8-6.1,4.2-10.1,4.4v-9.6l-14.5,14.5l14.5,14.5v-9.6c6.5-0.2,12.6-2.9,17.2-7.5
	c4.8-4.8,7.5-11.3,7.5-18.2C164.6,71.3,161.9,64.9,157.1,60.1z M114.5,45.3H84.9c-3.1,0-5.7,2.6-5.7,5.7v12.7c0,3.1,2.6,5.7,5.7,5.7
	h29.6c3.1,0,5.7-2.6,5.7-5.7V51C120.2,47.9,117.6,45.3,114.5,45.3z M114.5,85.9H84.9c-3.1,0-5.7,2.6-5.7,5.7v12.7
	c0,3.1,2.6,5.7,5.7,5.7h29.6c3.1,0,5.7-2.6,5.7-5.7V91.6C120.2,88.5,117.6,85.9,114.5,85.9z M114.5,128H84.9c-3.1,0-5.7,2.6-5.7,5.7
	v12.7c0,3.1,2.6,5.7,5.7,5.7h29.6c3.1,0,5.7-2.6,5.7-5.7v-12.7C120.2,130.5,117.6,128,114.5,128z"/>
</svg>
